<?xml version="1.0" encoding="UTF-8" standalone="no"?>
<!--

    Licensed to the Apache Software Foundation (ASF) under one
    or more contributor license agreements.  See the NOTICE file
    distributed with this work for additional information
    regarding copyright ownership.  The ASF licenses this file
    to you under the Apache License, Version 2.0 (the
    "License"); you may not use this file except in compliance
    with the License.  You may obtain a copy of the License at

      http://www.apache.org/licenses/LICENSE-2.0

    Unless required by applicable law or agreed to in writing,
    software distributed under the License is distributed on an
    "AS IS" BASIS, WITHOUT WARRANTIES OR CONDITIONS OF ANY
    KIND, either express or implied.  See the License for the
    specific language governing permissions and limitations
    under the License.

-->

<svg
   xmlns:dc="http://purl.org/dc/elements/1.1/"
   xmlns:cc="http://creativecommons.org/ns#"
   xmlns:rdf="http://www.w3.org/1999/02/22-rdf-syntax-ns#"
   xmlns:svg="http://www.w3.org/2000/svg"
   xmlns="http://www.w3.org/2000/svg"
   xmlns:sodipodi="http://sodipodi.sourceforge.net/DTD/sodipodi-0.dtd"
   xmlns:inkscape="http://www.inkscape.org/namespaces/inkscape"
   width="210mm"
   height="297mm"
   viewBox="0 0 793.70079 1122.5197"
   version="1.1"
   id="svg23"
   sodipodi:docname="Netbeans-logos.svg"
   inkscape:version="0.92.4 (5da689c313, 2019-01-14)">
  <metadata
     id="metadata29">
    <rdf:RDF>
      <cc:Work
         rdf:about="">
        <dc:format>image/svg+xml</dc:format>
        <dc:type
           rdf:resource="http://purl.org/dc/dcmitype/StillImage" />
        <dc:title>Apache NetBeans Logo</dc:title>
      </cc:Work>
    </rdf:RDF>
  </metadata>
  <defs
     id="defs27">
    <clipPath
       clipPathUnits="userSpaceOnUse"
       id="clipPath1332">
      <rect
         style="opacity:1;vector-effect:none;fill:#000000;fill-opacity:1;fill-rule:evenodd;stroke:#4d4d4d;stroke-width:1.00562954;stroke-linecap:butt;stroke-linejoin:miter;stroke-miterlimit:4;stroke-dasharray:none;stroke-dashoffset:0;stroke-opacity:1"
         id="rect1334"
         width="528.99945"
         height="252.00055"
         x="-3827.2031"
         y="-1380.2729"
         inkscape:export-xdpi="96"
         inkscape:export-ydpi="96" />
    </clipPath>
    <clipPath
       clipPathUnits="userSpaceOnUse"
       id="clipPath1806">
      <rect
         style="opacity:1;vector-effect:none;fill:none;fill-opacity:1;fill-rule:evenodd;stroke:#4d4d4d;stroke-width:1.03753066;stroke-linecap:butt;stroke-linejoin:miter;stroke-miterlimit:4;stroke-dasharray:none;stroke-dashoffset:0;stroke-opacity:1"
         id="rect1808"
         width="473.00021"
         height="300"
         x="-3775.0903"
         y="-1809.9677"
         inkscape:export-xdpi="96"
         inkscape:export-ydpi="96" />
    </clipPath>
  </defs>
  <sodipodi:namedview
     pagecolor="#ffffff"
     bordercolor="#666666"
     borderopacity="1"
     objecttolerance="10"
     gridtolerance="10"
     guidetolerance="10"
     inkscape:pageopacity="0"
     inkscape:pageshadow="2"
     inkscape:window-width="1920"
     inkscape:window-height="1017"
     id="namedview25"
     showgrid="false"
     inkscape:pagecheckerboard="true"
     units="mm"
     inkscape:snap-bbox="true"
     inkscape:bbox-paths="true"
     inkscape:snap-intersection-paths="true"
     inkscape:object-paths="true"
     inkscape:snap-smooth-nodes="true"
     showguides="true"
     inkscape:guide-bbox="true"
     inkscape:snap-global="false"
     inkscape:zoom="0.11523438"
     inkscape:cx="-3220.8139"
     inkscape:cy="484.29341"
     inkscape:window-x="-8"
     inkscape:window-y="-8"
     inkscape:window-maximized="1"
     inkscape:current-layer="svg23" />
  <title
     id="title2">Apache NetBeans Logo</title>
  <description>Apache NetBeans Logo</description>
  <g
     id="g856"
     transform="translate(277.69491,720.27115)"
     inkscape:export-xdpi="96"
     inkscape:export-ydpi="96">
    <path
       d="m -1007.5932,-124.93789 v 261.76271 l -359.5932,208.88136 -227.3899,-132.20339 z"
       id="path4"
       inkscape:connector-curvature="0"
       style="fill:#6e8625;fill-opacity:1;fill-rule:evenodd;stroke-width:0" />
    <path
       d="M -420.61013,213.50279 -648.00003,345.70618 -1007.5932,136.82482 V -124.93789 Z"
       id="path6"
       inkscape:connector-curvature="0"
       style="fill:#8bab26;fill-opacity:1;fill-rule:evenodd;stroke-width:0" />
    <path
       d="m -420.61013,890.38415 -227.3899,-132.2034 V 345.70618 l 227.3899,-132.20339 z"
       id="path8"
       inkscape:connector-curvature="0"
       style="fill:#16549e;fill-opacity:1;fill-rule:evenodd;stroke-width:0" />
    <path
       d="M -1007.5932,1228.8248 V 967.06215 l 359.59317,-208.8814 227.3899,132.2034 z"
       id="path10"
       inkscape:connector-curvature="0"
       style="fill:#1469b5;fill-opacity:1;fill-rule:evenodd;stroke-width:0" />
    <path
       d="m -1594.5763,890.38415 227.3899,-132.2034 359.5932,208.8814 v 261.76265 z"
       id="path12"
       inkscape:connector-curvature="0"
       style="fill:#b51144;fill-opacity:1;fill-rule:evenodd;stroke-width:0" />
    <path
       d="m -1594.5763,213.50279 227.3899,132.20339 v 412.47457 l -227.3899,132.2034 z"
       id="path14"
       inkscape:connector-curvature="0"
       style="fill:#7d0730;fill-opacity:1;fill-rule:evenodd;stroke-width:0" />
    <path
       d="m -1367.1864,345.70618 359.5932,-208.88136 359.59317,208.88136 -359.59317,206.23727 z"
       id="path16"
       inkscape:connector-curvature="0"
       style="fill:#808080;fill-rule:evenodd;stroke-width:0" />
    <path
       d="m -1007.5932,551.94345 359.59317,-206.23727 v 412.47457 l -359.59317,208.8814 z"
       id="path18"
       inkscape:connector-curvature="0"
       style="fill:#4d4d4d;fill-rule:evenodd;stroke-width:0" />
    <path
       d="m -1367.1864,345.70618 359.5932,206.23727 v 415.1187 l -359.5932,-208.8814 z"
       id="path20"
       inkscape:connector-curvature="0"
       style="fill:#cccccc;fill-rule:evenodd;stroke-width:0" />
  </g>
  <g
     transform="translate(222.46867,-936.51595)"
     id="g917">
    <path
       style="fill:#a1c535;fill-rule:evenodd;stroke-width:0"
       inkscape:connector-curvature="0"
       id="path899"
       d="m -1007.5932,-124.93789 v 261.76271 l -359.5932,208.88136 -227.3899,-132.20339 z" />
    <path
       style="fill:#add439;fill-rule:evenodd;stroke-width:0"
       inkscape:connector-curvature="0"
       id="path901"
       d="M -420.61013,213.50279 -648.00003,345.70618 -1007.5932,136.82482 V -124.93789 Z" />
    <path
       style="fill:#1b6ac6;fill-rule:evenodd;stroke-width:0"
       inkscape:connector-curvature="0"
       id="path903"
       d="m -420.61013,890.38415 -227.3899,-132.2034 V 345.70618 l 227.3899,-132.20339 z" />
    <path
       style="fill:#2e90e8;fill-rule:evenodd;stroke-width:0"
       inkscape:connector-curvature="0"
       id="path905"
       d="M -1007.5932,1228.8248 V 967.06215 l 359.59317,-208.8814 227.3899,132.2034 z" />
    <path
       style="fill:#ea205e;fill-rule:evenodd;stroke-width:0"
       inkscape:connector-curvature="0"
       id="path907"
       d="m -1594.5763,890.38415 227.3899,-132.2034 359.5932,208.8814 v 261.76265 z" />
    <path
       style="fill:#a5073e;fill-rule:evenodd;stroke-width:0"
       inkscape:connector-curvature="0"
       id="path909"
       d="m -1594.5763,213.50279 227.3899,132.20339 v 412.47457 l -227.3899,132.2034 z" />
    <path
       style="fill:#f1f6e2;fill-rule:evenodd;stroke-width:0"
       inkscape:connector-curvature="0"
       id="path911"
       d="m -1367.1864,345.70618 359.5932,-208.88136 359.59317,208.88136 -359.59317,206.23727 z" />
    <path
       style="fill:#cedbe6;fill-rule:evenodd;stroke-width:0"
       inkscape:connector-curvature="0"
       id="path913"
       d="m -1007.5932,551.94345 359.59317,-206.23727 v 412.47457 l -359.59317,208.8814 z" />
    <path
       style="fill:#ffffff;fill-rule:evenodd;stroke-width:0"
       inkscape:connector-curvature="0"
       id="path915"
       d="m -1367.1864,345.70618 359.5932,206.23727 v 415.1187 l -359.5932,-208.8814 z" />
  </g>
  <g
     id="g889"
     transform="rotate(-90,-1582.1484,1304.5654)"
     inkscape:export-xdpi="96"
     inkscape:export-ydpi="96">
    <path
       inkscape:connector-curvature="0"
       id="rect862"
       d="m -1859.5199,1342.6205 c -15.7256,0 -28.7183,12.9898 -28.7183,28.717 v 153.2106 c 0,15.7271 12.9912,28.7183 28.7183,28.7183 h 619.4461 c 15.7271,0 28.7169,-12.9927 28.7169,-28.7183 v -153.2106 c 0,-15.7257 -12.9913,-28.717 -28.7169,-28.717 z m 5.3149,34.0333 h 608.8149 v 142.5794 h -608.8149 z"
       style="color:#000000;font-style:normal;font-variant:normal;font-weight:normal;font-stretch:normal;font-size:medium;line-height:normal;font-family:sans-serif;font-variant-ligatures:normal;font-variant-position:normal;font-variant-caps:normal;font-variant-numeric:normal;font-variant-alternates:normal;font-feature-settings:normal;text-indent:0;text-align:start;text-decoration:none;text-decoration-line:none;text-decoration-style:solid;text-decoration-color:#000000;letter-spacing:normal;word-spacing:normal;text-transform:none;writing-mode:lr-tb;direction:ltr;text-orientation:mixed;dominant-baseline:auto;baseline-shift:baseline;text-anchor:start;white-space:normal;shape-padding:0;clip-rule:nonzero;display:inline;overflow:visible;visibility:visible;opacity:1;isolation:auto;mix-blend-mode:normal;color-interpolation:sRGB;color-interpolation-filters:linearRGB;solid-color:#000000;solid-opacity:1;vector-effect:none;fill:#666666;fill-opacity:1;fill-rule:evenodd;stroke:none;stroke-width:27.75348091;stroke-linecap:butt;stroke-linejoin:miter;stroke-miterlimit:4;stroke-dasharray:none;stroke-dashoffset:0;stroke-opacity:1;color-rendering:auto;image-rendering:auto;shape-rendering:auto;text-rendering:auto;enable-background:accumulate" />
    <path
       id="rect845"
       d="m -1859.5206,1359.6368 h 619.4465 c 6.4824,0 11.701,5.2187 11.701,11.701 v 153.2106 c 0,6.4824 -5.2186,11.701 -11.701,11.701 h -619.4465 c -6.4823,0 -11.701,-5.2186 -11.701,-11.701 v -153.2106 c 0,-6.4823 5.2187,-11.701 11.701,-11.701 z"
       style="opacity:1;vector-effect:none;fill:#333333;fill-opacity:1;fill-rule:evenodd;stroke:none;stroke-width:6.27944946;stroke-linecap:butt;stroke-linejoin:miter;stroke-miterlimit:4;stroke-dasharray:none;stroke-dashoffset:0;stroke-opacity:1"
       inkscape:connector-curvature="0" />
    <path
       sodipodi:nodetypes="ccsssc"
       inkscape:connector-curvature="0"
       style="opacity:1;vector-effect:none;fill:#1a1a1a;fill-opacity:1;fill-rule:evenodd;stroke:none;stroke-width:6.27944946;stroke-linecap:butt;stroke-linejoin:miter;stroke-miterlimit:4;stroke-dasharray:none;stroke-dashoffset:0;stroke-opacity:1"
       d="m -1859.5206,1359.6368 144.5519,176.6126 h -144.5519 c -6.4823,0 -11.701,-5.2186 -11.701,-11.701 v -153.2106 c 0,-6.4823 5.2187,-11.701 11.701,-11.701 z"
       id="path859" />
    <path
       sodipodi:nodetypes="cccc"
       inkscape:connector-curvature="0"
       style="opacity:1;vector-effect:none;fill:#333333;fill-opacity:1;fill-rule:evenodd;stroke:none;stroke-width:6.27944946;stroke-linecap:butt;stroke-linejoin:miter;stroke-miterlimit:4;stroke-dasharray:none;stroke-dashoffset:0;stroke-opacity:1"
       d="m -1859.5206,1359.6368 h 259.7089 l -115.157,176.6126 z"
       id="path861" />
    <path
       sodipodi:nodetypes="cccc"
       inkscape:connector-curvature="0"
       style="opacity:1;vector-effect:none;fill:#4d4d4d;fill-opacity:1;fill-rule:evenodd;stroke:none;stroke-width:6.27944946;stroke-linecap:butt;stroke-linejoin:miter;stroke-miterlimit:4;stroke-dasharray:none;stroke-dashoffset:0;stroke-opacity:1"
       d="m -1599.8117,1359.6368 120.0088,176.6126 h -235.1658 z"
       id="path863" />
    <path
       sodipodi:nodetypes="cccc"
       inkscape:connector-curvature="0"
       style="opacity:1;vector-effect:none;fill:#666666;fill-opacity:1;fill-rule:evenodd;stroke:none;stroke-width:6.27944946;stroke-linecap:butt;stroke-linejoin:miter;stroke-miterlimit:4;stroke-dasharray:none;stroke-dashoffset:0;stroke-opacity:1"
       d="m -1599.8117,1359.6368 h 233.3647 l -113.3559,176.6126 z"
       id="path865" />
    <path
       sodipodi:nodetypes="cccc"
       inkscape:connector-curvature="0"
       style="opacity:1;vector-effect:none;fill:#808080;fill-opacity:1;fill-rule:evenodd;stroke:none;stroke-width:6.27944946;stroke-linecap:butt;stroke-linejoin:miter;stroke-miterlimit:4;stroke-dasharray:none;stroke-dashoffset:0;stroke-opacity:1"
       d="m -1366.447,1359.6368 126.3729,176.6126 h -239.7288 z"
       id="path867" />
    <path
       sodipodi:nodetypes="cssscc"
       inkscape:connector-curvature="0"
       style="opacity:1;vector-effect:none;fill:#999999;fill-opacity:1;fill-rule:evenodd;stroke:none;stroke-width:6.27944946;stroke-linecap:butt;stroke-linejoin:miter;stroke-miterlimit:4;stroke-dasharray:none;stroke-dashoffset:0;stroke-opacity:1"
       d="m -1366.447,1359.6368 h 126.3729 c 6.4824,0 11.701,5.2187 11.701,11.701 v 153.2106 c 0,6.4824 -5.2186,11.701 -11.701,11.701 z"
       id="path870" />
    <g
       transform="matrix(0.69383703,0,0,0.69383703,-855.3161,546.04173)"
       id="text860"
       style="font-style:normal;font-variant:normal;font-weight:900;font-stretch:normal;font-size:148.55580139px;line-height:1.25;font-family:Arial;-inkscape-font-specification:'Arial, Heavy';font-variant-ligatures:normal;font-variant-position:normal;font-variant-caps:normal;font-variant-numeric:normal;font-variant-alternates:normal;font-feature-settings:normal;text-indent:0;text-align:start;text-decoration:none;text-decoration-line:none;text-decoration-style:solid;text-decoration-color:#000000;letter-spacing:0px;word-spacing:0px;text-transform:none;writing-mode:lr-tb;direction:ltr;text-orientation:mixed;dominant-baseline:auto;baseline-shift:baseline;text-anchor:start;white-space:normal;shape-padding:0;opacity:1;vector-effect:none;fill:#e3e3e3;fill-opacity:1;stroke:none;stroke-width:3.71390986;stroke-linecap:butt;stroke-linejoin:miter;stroke-miterlimit:4;stroke-dasharray:none;stroke-dashoffset:0;stroke-opacity:1"
       aria-label="PORTABLE">
      <path
         id="path869"
         style="fill:#e3e3e3;fill-opacity:1;stroke-width:3.71390986"
         d="m -1432.2701,1246.7058 h 54.6203 q 17.8441,0 26.6937,8.4868 8.922,8.4868 8.922,24.1548 0,16.1033 -9.72,25.1704 -9.6474,9.0671 -29.5225,9.0671 h -17.9892 v 39.4601 h -33.0043 z m 33.0043,45.3356 h 8.0516 q 9.5024,0 13.3468,-3.2641 3.8445,-3.3368 3.8445,-8.4869 0,-5.005 -3.3367,-8.4868 -3.3367,-3.4818 -12.5489,-3.4818 h -9.3573 z"
         inkscape:connector-curvature="0" />
      <path
         id="path871"
         style="fill:#e3e3e3;fill-opacity:1;stroke-width:3.71390986"
         d="m -1328.9049,1299.948 q 0,-26.0408 14.5074,-40.5482 14.5074,-14.5074 40.4031,-14.5074 26.5486,0 40.9109,14.2897 14.3623,14.2173 14.3623,39.8954 0,18.642 -6.3107,30.6106 -6.2382,11.8961 -18.1342,18.5695 -11.8236,6.6009 -29.5226,6.6009 -17.9892,0 -29.8127,-5.7305 -11.751,-5.7304 -19.0773,-18.1342 -7.3262,-12.4038 -7.3262,-31.0458 z m 32.8593,0.145 q 0,16.1032 5.948,23.1393 6.0206,7.0361 16.3208,7.0361 10.5904,0 16.3934,-6.891 5.803,-6.891 5.803,-24.7351 0,-15.0152 -6.0931,-21.9062 -6.0206,-6.9635 -16.3934,-6.9635 -9.9376,0 -15.9582,7.036 -6.0205,7.0361 -6.0205,23.2844 z"
         inkscape:connector-curvature="0" />
      <path
         id="path873"
         style="fill:#e3e3e3;fill-opacity:1;stroke-width:3.71390986"
         d="m -1200.4418,1353.045 v -106.3392 h 54.7654 q 15.2328,0 23.2844,2.6113 8.0516,2.6113 12.9841,9.72 4.9325,7.0361 4.9325,17.1912 0,8.8496 -3.7719,15.3054 -3.7719,6.3832 -10.3728,10.3728 -4.2071,2.5387 -11.5334,4.2071 5.8755,1.9585 8.5594,3.917 1.8134,1.3057 5.2227,5.5853 3.4817,4.2797 4.6423,6.6009 l 15.8856,30.8282 h -37.1389 l -17.554,-32.4965 q -3.3367,-6.3108 -5.948,-8.1967 -3.5543,-2.4663 -8.0516,-2.4663 h -2.9015 v 43.1595 z m 33.0043,-63.2522 h 13.8546 q 2.2486,0 8.7044,-1.4508 3.2642,-0.6528 5.2952,-3.3367 2.1036,-2.6838 2.1036,-6.1656 0,-5.1501 -3.2642,-7.9066 -3.2641,-2.7564 -12.2587,-2.7564 h -14.4349 z"
         inkscape:connector-curvature="0" />
      <path
         id="path875"
         style="fill:#e3e3e3;fill-opacity:1;stroke-width:3.71390986"
         d="m -1094.03,1246.7058 h 99.88344 v 26.2584 h -33.51214 v 80.0808 h -32.8592 v -80.0808 h -33.5121 z"
         inkscape:connector-curvature="0" />
      <path
         id="path877"
         style="fill:#e3e3e3;fill-opacity:1;stroke-width:3.71390986"
         d="m -923.93075,1335.4911 h -37.4291 l -5.15012,17.5539 h -33.58463 l 39.96788,-106.3392 h 35.83329 l 39.96789,106.3392 h -34.38254 z m -6.89101,-22.9942 -11.751,-38.2271 -11.67846,38.2271 z"
         inkscape:connector-curvature="0" />
      <path
         id="path879"
         style="fill:#e3e3e3;fill-opacity:1;stroke-width:3.71390986"
         d="m -873.80765,1246.7058 h 61.51138 q 15.37785,0 23.57453,7.6164 8.26922,7.6164 8.26922,18.8596 0,9.4298 -5.8755,16.1757 -3.917,4.4973 -11.46084,7.1087 11.46084,2.7564 16.82858,9.5023 5.44028,6.6734 5.44028,16.8286 0,8.2692 -3.84446,14.8701 -3.84446,6.6009 -10.51787,10.4453 -4.13461,2.3937 -12.47637,3.4818 -11.09816,1.4507 -14.72501,1.4507 h -56.72394 z m 33.14941,41.7088 h 14.28979 q 7.68893,0 10.66294,-2.6114 3.04656,-2.6838 3.04656,-7.6889 0,-4.6424 -3.04656,-7.2537 -2.97401,-2.6113 -10.44533,-2.6113 h -14.5074 z m 0,41.7813 h 16.75605 q 8.48683,0 11.96861,-2.974 3.48177,-3.0466 3.48177,-8.1242 0,-4.7149 -3.48177,-7.5438 -3.40924,-2.9015 -12.04115,-2.9015 h -16.68351 z"
         inkscape:connector-curvature="0" />
      <path
         id="path881"
         style="fill:#e3e3e3;fill-opacity:1;stroke-width:3.71390986"
         d="m -758.40131,1246.7058 h 32.85927 v 80.1534 h 51.28367 v 26.1858 h -84.14294 z"
         inkscape:connector-curvature="0" />
      <path
         id="path883"
         style="fill:#e3e3e3;fill-opacity:1;stroke-width:3.71390986"
         d="m -659.24319,1246.7058 h 88.05993 v 22.7041 h -55.12813 v 16.9011 h 51.13859 v 21.6886 h -51.13859 v 20.9632 h 56.72394 v 24.0822 h -89.65574 z"
         inkscape:connector-curvature="0" />
    </g>
  </g>
</svg>
