<?xml version="1.0" encoding="UTF-8" standalone="no"?>
<!-- Generator: Adobe Illustrator 13.0.0, SVG Export Plug-In . SVG Version: 6.00 Build 14948)  -->

<svg
   xmlns:dc="http://purl.org/dc/elements/1.1/"
   xmlns:cc="http://creativecommons.org/ns#"
   xmlns:rdf="http://www.w3.org/1999/02/22-rdf-syntax-ns#"
   xmlns:svg="http://www.w3.org/2000/svg"
   xmlns="http://www.w3.org/2000/svg"
   xmlns:sodipodi="http://sodipodi.sourceforge.net/DTD/sodipodi-0.dtd"
   xmlns:inkscape="http://www.inkscape.org/namespaces/inkscape"
   version="1.1"
   id="Layer_1"
   x="0px"
   y="0px"
   width="200.49774"
   height="112.90543"
   viewBox="0 0 257.54401 145.02966"
   xml:space="preserve"
   sodipodi:docname="Java_logo.svg"
   inkscape:version="0.92.5 (2060ec1f9f, 2020-04-08)"><metadata
   id="metadata33"><rdf:RDF><cc:Work
       rdf:about=""><dc:format>image/svg+xml</dc:format><dc:type
         rdf:resource="http://purl.org/dc/dcmitype/StillImage" /><dc:title></dc:title></cc:Work></rdf:RDF></metadata><defs
   id="defs31"><clipPath
     id="clipPath4004"
     clipPathUnits="userSpaceOnUse"><path
       inkscape:connector-curvature="0"
       id="path4002"
       d="M 0,0 H 612 V 792 H 0 Z" /></clipPath></defs><sodipodi:namedview
   pagecolor="#ffffff"
   bordercolor="#666666"
   borderopacity="1"
   objecttolerance="10"
   gridtolerance="10"
   guidetolerance="10"
   inkscape:pageopacity="0"
   inkscape:pageshadow="2"
   inkscape:window-width="1920"
   inkscape:window-height="1017"
   id="namedview29"
   showgrid="false"
   inkscape:pagecheckerboard="true"
   inkscape:zoom="1.5589647"
   inkscape:cx="393.24401"
   inkscape:cy="-107.5353"
   inkscape:window-x="-8"
   inkscape:window-y="-8"
   inkscape:window-maximized="1"
   inkscape:current-layer="Layer_1"
   fit-margin-top="0"
   fit-margin-left="0"
   fit-margin-right="0"
   fit-margin-bottom="0"
   inkscape:showpageshadow="false" />



























<g
   id="g4420"
   style="fill:#007396;fill-opacity:1"
   transform="translate(-496.4746,130.48564)"><path
     inkscape:connector-curvature="0"
     id="path4084"
     style="fill:#007396;fill-opacity:1;fill-rule:nonzero;stroke:none;stroke-width:3.06855273"
     d="m 641.60558,1.7880202 c 0,1.8595343 -0.55541,3.3140306 -1.67236,4.3573435 -1.27651,1.2059409 -3.2097,1.8073794 -5.79342,1.8073794 h -0.82545 V 14.27703 h -2.86909 V -3.6586637 c 0.44494,0 1.15991,-0.00896 2.15105,-0.027591 h 2.44564 c 4.37576,0 6.56363,1.8257976 6.56363,5.4743111 m -3.00105,0.2915013 c 0,-2.42415453 -1.34708,-3.6393045 -4.04128,-3.6393045 h -1.2489 v 7.3614727 h 1.30414 c 2.65736,0 3.98604,-1.2396956 3.98604,-3.7221682 m 19.28893,2.8967198 c 0,3.2250573 -0.69964,5.6614845 -2.0989,7.3092995 -1.27345,1.506651 -3.05626,2.258445 -5.33927,2.258445 -2.28608,0 -3.99525,-0.665866 -5.13062,-1.994553 -1.2397,-1.469833 -1.85955,-3.7804682 -1.85955,-6.9349346 0,-3.2066392 0.69963,-5.6338574 2.09889,-7.2816726 1.27652,-1.5035874 3.05629,-2.2584628 5.34236,-2.2584628 4.65805,0 6.98709,2.96729281 6.98709,8.9018785 M 654.8648,5.482597 c 0,-2.5530457 -0.36209,-4.41258 -1.08934,-5.58170251 -0.67201,-1.08013129 -1.72759,-1.62020589 -3.16061,-1.62020589 -2.74636,0 -4.12106,2.25846284 -4.12106,6.7753706 0,2.5867824 0.36516,4.4647528 1.08932,5.6338578 0.6751,1.080131 1.7276,1.623269 3.1637,1.623269 2.74634,0 4.11799,-2.279927 4.11799,-6.830589 m 26.52149,-9.1412248 c -1.36244,6.517606 -2.8783,12.4982191 -4.54451,17.9356938 h -3.13301 L 670.99618,3.5954355 670.44077,0.91045272 h -0.0276 l -0.50324,2.70952828 -2.52542,10.657085 h -3.16367 c -1.71839,-5.5632842 -3.2404,-11.5408336 -4.56908,-17.9356938 h 3.08083 c 0.40812,2.1080897 1.51586,6.882762 3.32324,14.3209348 h 0.0245 l 0.39891,-2.0988983 2.87216,-12.2220365 h 2.73407 l 3.4552,14.3209348 h 0.0552 c 1.39926,-6.0204949 2.41803,-10.79516718 3.05628,-14.3209348 z m 11.74949,17.9356938 h -9.01233 V -3.6586278 h 8.90186 v 2.2308356 h -6.02971 v 5.4466838 h 4.968 v 2.1541172 h -4.968 v 5.8455942 h 6.14018 z m 15.49006,0 h -3.34779 l -4.56908,-7.8370836 h -1.19673 v 7.8370836 h -2.87217 V -3.6586278 c 2.02218,-0.036729 3.67612,-0.055183 4.97105,-0.055183 2.0007,0 3.53498,0.4265378 4.59669,1.2765139 0.97581,0.8162393 1.46064,1.93933434 1.46064,3.37541248 0,2.69419182 -1.39005,4.33279792 -4.17017,4.91581832 z M 704.66741,1.2571905 c 0,-1.93012527 -1.19674,-2.8967198 -3.58713,-2.8967198 h -1.56804 v 5.9775494 h 1.75521 c 2.26765,0 3.39996,-1.0248947 3.39996,-3.0808296 m 15.41334,13.0198755 h -9.01234 V -3.6586278 h 8.90494 v 2.2308356 h -6.03278 v 5.4466838 h 4.96799 v 2.1541172 h -4.96799 v 5.8455942 h 6.14018 z m 15.62507,-9.4327439 c 0,6.3427049 -2.78318,9.5125259 -8.3434,9.5125259 -0.42652,0 -1.06786,-0.01254 -1.92705,-0.03995 -0.8592,-0.02759 -1.47597,-0.03995 -1.84727,-0.03995 V -3.6587532 c 0.53086,0 1.29186,-0.00896 2.283,-0.027591 h 2.26153 c 2.63896,0 4.6059,0.8315937 5.89775,2.4978091 1.11697,1.46983285 1.67544,3.4797402 1.67544,6.032768 m -3.00411,0.343692 c 0,-4.48008934 -1.62021,-6.720134 -4.86366,-6.720134 -0.60144,0 -1.06172,0.00537 -1.38084,0.024546 V 12.07375 c 0.67507,0.03368 1.17831,0.05214 1.51279,0.05214 3.15447,0 4.73171,-2.3106354 4.73171,-6.9379983" /><path
     inkscape:connector-curvature="0"
     id="path4086"
     style="fill:#007396;fill-opacity:1;fill-rule:nonzero;stroke:none;stroke-width:3.06855273"
     d="m 752.64393,-49.636635 h 1.37469 v -6.753888 h -2.07127 l -1.68463,4.605899 -1.84114,-4.605899 h -1.99149 v 6.753888 h 1.30108 v -5.136746 h 0.0797 l 1.91783,5.136746 h 0.99729 l 1.91785,-5.136746 z m -11.11738,0 h 1.46064 v -5.606248 h 1.90863 v -1.14764 H 739.532 v 1.14764 h 1.99455 z m -120.71993,28.107941 c 0,8.868124 -2.9949,15.5422307 -8.98165,20.0008382 l -4.32667,-3.6699954 c 1.9025,-2.2338993 3.18516,-4.9004818 3.83569,-8.0058568 0.43881,-2.123444 0.65361,-5.056965 0.65361,-8.815951 v -48.906582 h 8.81902 z m 39.60274,5.713658 h -6.53294 l -0.65361,-4.409517 c -4.03207,3.48895 -8.22066,5.22882 -12.57186,5.22882 -8.16848,0 -12.24966,-3.758987 -12.24966,-11.267733 0,-4.302107 1.66009,-7.646828 4.97718,-10.043374 3.59328,-2.559173 8.84665,-3.835687 15.76316,-3.835687 h 2.9366 v -3.679204 c 0,-4.842164 -2.80158,-7.266318 -8.40783,-7.266318 -3.64849,0 -7.61922,0.794739 -11.92132,2.368918 l -1.22434,-5.142892 c 5.06311,-2.233917 10.206,-3.350867 15.43482,-3.350867 9.63217,0 14.4498,4.11187 14.4498,12.329446 z m -8.33113,-9.386717 v -9.635254 h -3.50735 c -7.89538,0 -11.84154,2.448718 -11.84154,7.346118 0,4.246871 2.09582,6.370315 6.28747,6.370315 2.88751,0 5.90696,-1.362441 9.06142,-4.081179 m 49.1521,-31.271616 c -2.66659,15.023637 -6.85822,28.574361 -12.57494,40.658333 h -10.36557 l -12.49207,-40.658333 h 9.05836 l 7.76036,24.981084 1.71533,7.514891 c 4.02594,-11.102023 6.72013,-21.93709 8.08257,-32.495975 z m 34.45371,40.658333 h -6.53296 l -0.65053,-4.409517 c -4.02901,3.48895 -8.22066,5.22882 -12.57492,5.22882 -8.16236,0 -12.24354,-3.758987 -12.24354,-11.267733 0,-4.302107 1.66009,-7.646828 4.9772,-10.043374 3.59328,-2.559173 8.84662,-3.835687 15.75701,-3.835687 h 2.94275 v -3.679204 c 0,-4.842164 -2.80773,-7.266318 -8.41398,-7.266318 -3.64851,0 -7.61922,0.794739 -11.91826,2.368918 l -1.22128,-5.142892 c 5.05697,-2.233917 10.20601,-3.350867 15.42868,-3.350867 9.63219,0 14.44983,4.11187 14.44983,12.329446 z m -8.32499,-9.386717 v -9.635254 h -3.51349 c -7.88926,0 -11.83542,2.448718 -11.83542,7.346118 0,4.246871 2.09275,6.370315 6.28134,6.370315 2.88749,0 5.90696,-1.362441 9.06757,-4.081179" /></g><path
   d="m 12.087121,76.709825 c 0,-3.5718 13.5446,-5.57556 19.85355,-6.06038 l 0.60142,0.3498 c -2.42415,0.43881 -12.14532,2.15414 -12.14532,4.3911 0,2.43336 14.9101,4.02902 23.56341,4.02902 14.70144,0 24.69264,-2.22471 27.38069,-2.95808 l 3.758986,2.18787 c -2.574506,1.26118 -13.627436,4.566 -31.136596,4.566 -19.46076,0 -31.87614,-3.80806 -31.87614,-6.50533 m 29.65758,50.124815 c -7.70209,0.0675 -17.10412,-0.57075 -25.01486,-1.89943 l -0.73338,0.42039 c 7.88005,2.31062 18.85012,3.70681 30.90646,3.5994 23.67388,-0.20559 42.867686,-6.07573 43.248176,-13.1426 l -0.2731,-0.15964 c -1.58951,1.93626 -11.82927,10.86268 -48.133296,11.18181 m 2.01603,-4.55066 c 19.37484,-0.16878 41.054156,-3.9615 40.998926,-10.3349 -0.009,-1.15683 -0.76407,-1.94852 -1.41766,-2.42722 l -0.31607,0.18411 c -1.79204,4.9373 -16.932276,8.58582 -39.298946,8.77914 -14.43141,0.12577 -34.4230195,-3.33245 -34.4567795,-7.3277 -0.0369,-4.00446 9.4695495,-6.20769 9.4695495,-6.20769 l -0.67201,-0.38357 C 11.697421,105.4437 -0.03979853,108.4969 1.0146715e-4,112.90027 0.05530147,119.26752 27.030981,122.42813 43.760731,122.28391 M 87.410877,78.412805 c -0.3897,7.47807 -7.297,12.13 -14.198176,16.06387 l 0.62598,0.36209 c 7.364516,-2.07434 20.507136,-8.10712 19.420856,-17.38335 -0.54312,-4.62432 -4.76852,-7.92914 -10.28272,-7.92914 -1.7153,0 -3.24345,0.30379 -4.48007,0.67814 l -0.004,0.0125 -0.26083,0.65974 c 4.92811,-0.96659 9.43274,2.63587 9.17804,7.53636 M 30.491381,100.62631 c -2.24924,0.448 -7.14972,1.57416 -7.14972,3.95537 0,3.30176 10.48525,5.83024 20.60839,5.83024 13.92817,0 19.6326,-3.58407 19.89036,-3.76818 l -5.79036,-3.35086 c -2.46405,0.58609 -6.61272,1.50666 -14.08465,1.50666 -8.34032,0 -13.77473,-1.42688 -13.77473,-2.98877 0,-0.33447 0.20559,-0.72725 0.59223,-1.01569 z m 34.21743,-11.126575 c -3.20356,0.90521 -10.41772,2.38426 -20.7342,2.38426 -10.12624,0 -18.39905,-1.73066 -18.42666,-3.77431 -0.0161,-1.35631 1.62633,-1.94854 1.62633,-1.94854 l -0.29151,-0.16878 c -4.85138,0.85614 -9.35295,2.18175 -9.3284,4.16405 0.046,3.5994 13.80848,6.3028 26.39876,6.3028 10.70617,0 20.98583,-1.7951 25.6224,-4.14869 z"
   style="fill:#007396;fill-opacity:1;fill-rule:nonzero;stroke:none;stroke-width:3.06855273"
   id="path4088"
   inkscape:connector-curvature="0" /><path
   d="m 61.948961,9.22407 c 0,19.84126 -27.19044,27.435934 -27.19044,41.542068 0,9.902207 6.5667,16.112957 10.19986,20.040717 l -0.29459,0.16878 c -4.58748,-2.86911 -16.65609,-10.08021 -16.65609,-21.992331 0,-16.720544 31.23173,-24.711044 31.23173,-43.705394 0,-2.33824 -0.34676,-4.13027 -0.58917,-5.09686 L 58.966331,0 c 0.99114,1.24276 2.98263,4.3512 2.98263,9.22407 m 8.94176,17.57052 -0.32526,-0.18411 c -5.91925,1.9823 -24.13417,9.17192 -24.13417,22.578416 0,7.582401 7.40442,11.783249 7.40442,18.890019 0,2.53769 -1.43301,4.91582 -2.59907,6.33962 l 0.5861,0.33755 c 3.08083,-2.00376 8.53978,-6.34271 8.53978,-11.94281 0,-4.74092 -6.56363,-10.439222 -6.56363,-16.533372 0,-9.607627 12.66391,-17.144003 17.09183,-19.485313"
   style="fill:#ed8b00;fill-opacity:1;fill-rule:nonzero;stroke:none;stroke-width:3.06855273"
   id="path4090"
   inkscape:connector-curvature="0" /><path
   d="m 550.79245,169.77175 c 0,1.81966 -0.5431,3.2404 -1.6356,4.26223 -1.2488,1.17833 -3.1391,1.76748 -5.6645,1.76748 h -0.807 v 6.1862 h -2.8077 v -17.5429 c 0.4357,0 1.1353,-0.009 2.105,-0.0276 h 2.3904 c 4.2806,0 6.4194,1.7859 6.4194,5.35461 m -2.9366,0.28537 c 0,-2.37199 -1.3164,-3.55952 -3.9492,-3.55952 h -1.2213 v 7.19882 h 1.2734 c 2.5991,0 3.8971,-1.21206 3.8971,-3.6393 m 18.8655,2.83227 c 0,3.15448 -0.6844,5.53568 -2.0499,7.14668 -1.2488,1.47595 -2.9887,2.20935 -5.2257,2.20935 -2.2339,0 -3.9062,-0.64746 -5.014,-1.94853 -1.2121,-1.4361 -1.8197,-3.69762 -1.8197,-6.78457 0,-3.13299 0.6843,-5.50805 2.0529,-7.11905 1.2489,-1.47289 2.9888,-2.20935 5.2227,-2.20935 4.5568,0 6.8337,2.90284 6.8337,8.70547 m -2.9612,0.49405 c 0,-2.49475 -0.356,-4.3144 -1.0648,-5.45589 -0.6597,-1.05559 -1.6908,-1.58644 -3.0931,-1.58644 -2.685,0 -4.029,2.20935 -4.029,6.62501 0,2.53156 0.356,4.36961 1.0679,5.51113 0.6566,1.05555 1.6877,1.58642 3.09,1.58642 2.688,0 4.029,-2.22777 4.029,-6.68023 m 25.9385,-8.9387 c -1.3349,6.37338 -2.817,12.22204 -4.4464,17.54292 h -3.0654 l -2.6513,-10.44842 -0.5431,-2.62361 h -0.028 l -0.491,2.64816 -2.4702,10.42387 h -3.0931 c -1.6815,-5.44361 -3.1698,-11.2892 -4.4708,-17.54292 h 3.0164 c 0.3958,2.06206 1.479,6.72935 3.2465,14.00793 h 0.024 l 0.3897,-2.05284 2.8077,-11.95509 h 2.6789 l 3.3784,14.00793 h 0.052 c 1.3686,-5.89162 2.3659,-10.56194 2.9888,-14.00793 z m 11.4886,17.54292 h -8.8128 v -17.54292 h 8.7054 v 2.18175 h -5.8977 v 5.327 h 4.8575 v 2.10502 h -4.8575 v 5.71979 h 6.0051 z m 15.1495,0 h -3.2742 l -4.4708,-7.66831 h -1.1692 v 7.66831 h -2.8077 v -17.54292 c 1.9762,-0.0337 3.5963,-0.0522 4.8606,-0.0522 1.9577,0 3.4552,0.41426 4.4954,1.2489 0.9543,0.79782 1.43,1.89331 1.43,3.2987 0,2.63589 -1.3594,4.23768 -4.0781,4.80843 z m -3.8725,-12.73448 c 0,-1.89026 -1.1692,-2.83229 -3.5074,-2.83229 h -1.5343 v 5.8456 h 1.7154 c 2.2185,0 3.3263,-1.00343 3.3263,-3.01331 m 15.0727,12.73448 h -8.8098 v -17.54292 h 8.7055 v 2.18175 h -5.8978 v 5.327 h 4.8576 v 2.10502 h -4.8576 v 5.71979 h 6.0021 z m 15.2814,-9.22715 c 0,6.20155 -2.7218,9.30386 -8.1593,9.30386 -0.4173,0 -1.0433,-0.0129 -1.884,-0.0399 -0.8408,-0.0245 -1.4423,-0.0369 -1.8074,-0.0369 v -17.54291 c 0.5186,0 1.2642,-0.009 2.2339,-0.0276 h 2.2093 c 2.5838,0 4.5077,0.81623 5.772,2.44256 1.0893,1.43916 1.6355,3.40611 1.6355,5.90083 m -2.9366,0.33755 c 0,-4.38191 -1.5834,-6.57591 -4.7562,-6.57591 -0.5892,0 -1.0403,0.009 -1.3502,0.0276 v 13.28071 c 0.6567,0.0337 1.1507,0.0491 1.4791,0.0491 3.0838,0 4.6273,-2.25847 4.6273,-6.7815"
   style="fill:#007396;fill-opacity:1;fill-rule:nonzero;stroke:none;stroke-width:3.06855273"
   id="path4076"
   inkscape:connector-curvature="0" /><path
   d="m 659.38215,119.46528 h 1.3501 v -6.60351 h -2.0283 l -1.6478,4.50157 -1.7982,-4.50157 h -1.9485 v 6.60351 h 1.2735 v -5.02627 h 0.071 l 1.8811,5.02627 h 0.9727 l 1.8749,-5.02627 z m -10.8719,0 h 1.4269 v -5.4835 h 1.8718 v -1.12001 h -5.2442 v 1.12001 h 1.9455 z m -118.0565,27.49117 c 0,8.67481 -2.9305,15.19547 -8.7822,19.56203 l -4.2315,-3.59328 c 1.8595,-2.18175 3.1115,-4.79001 3.7498,-7.82481 0.4265,-2.0774 0.6413,-4.94958 0.6413,-8.62263 V 98.648216 h 8.6226 z m 38.7282,5.58785 h -6.3887 l -0.6383,-4.31133 c -3.94,3.40916 -8.0396,5.11221 -12.2957,5.11221 -7.9874,0 -11.9796,-3.67612 -11.9796,-11.01917 0,-4.20699 1.6233,-7.47806 4.8698,-9.82243 3.5135,-2.50393 8.6503,-3.75285 15.4134,-3.75285 h 2.8721 v -3.59633 c 0,-4.73479 -2.7402,-7.10371 -8.2237,-7.10371 -3.5657,0 -7.4505,0.77021 -11.6574,2.31368 l -1.1968,-5.02935 c 4.9496,-2.18481 9.982,-3.27415 15.0912,-3.27415 9.4204,0 14.1337,4.01981 14.1337,12.05634 z m -8.147,-9.18113 v -9.42352 h -3.4337 c -7.7174,0 -11.5776,2.39655 -11.5776,7.18656 0,4.15175 2.0498,6.22914 6.1493,6.22914 2.8231,0 5.7751,-1.33174 8.862,-3.99218 m 48.072,-30.58118 c -2.6083,14.69222 -6.7079,27.94531 -12.2988,39.76231 h -10.1416 l -12.2159,-39.76231 h 8.8651 l 7.5824,24.43181 1.6754,7.34612 c 3.9431,-10.85961 6.5759,-21.45225 7.9046,-31.77793 z m 33.6958,39.76231 h -6.3888 l -0.6382,-4.31133 c -3.9431,3.40916 -8.0427,5.11221 -12.2988,5.11221 -7.9874,0 -11.9796,-3.67612 -11.9796,-11.01917 0,-4.20699 1.6232,-7.47806 4.8698,-9.82243 3.5135,-2.50393 8.6503,-3.75285 15.4164,-3.75285 h 2.8691 v -3.59633 c 0,-4.73479 -2.7371,-7.10371 -8.2207,-7.10371 -3.5687,0 -7.4535,0.77021 -11.6574,2.31368 l -1.1998,-5.02935 c 4.9527,-2.18481 9.982,-3.27415 15.0942,-3.27415 9.4205,0 14.1338,4.01981 14.1338,12.05634 z m -8.1501,-9.18113 v -9.42352 h -3.4306 c -7.7205,0 -11.5808,2.39655 -11.5808,7.18656 0,4.15175 2.0529,6.22914 6.1525,6.22914 2.82,0 5.775,-1.33174 8.8589,-3.99218"
   style="fill:#007396;fill-opacity:1;fill-rule:nonzero;stroke:none;stroke-width:3.06855273"
   id="path4078"
   inkscape:connector-curvature="0" /><path
   d="m 534.24745,14.384846 c 0,-4.9649098 18.8348,-7.7511498 27.6077,-8.4262498 l 0.8378,0.48484 c -3.3693,0.61065 -16.8894,2.9949 -16.8894,6.1064298 0,3.3846 20.7343,5.60316 32.7691,5.60316 20.4397,0 34.3341,-3.0931 38.0716,-4.11185 l 5.2288,3.04093 c -3.581,1.75214 -18.9514,6.34883 -43.3004,6.34883 -27.0585,0 -44.3252,-5.29631 -44.3252,-9.04609 m 41.2413,69.70218 c -10.7092,0.0921 -23.7843,-0.79476 -34.7851,-2.64202 l -1.0187,0.58608 c 10.9577,3.21279 26.2115,5.15211 42.975,5.00788 32.9225,-0.28844 59.6128,-8.45386 60.1406,-18.27629 l -0.3805,-0.224 c -2.2063,2.69418 -16.4443,15.10648 -66.9313,15.54835 m 2.8047,-6.32735 c 26.9419,-0.23629 57.0874,-5.50806 57.0107,-14.37311 -0.013,-1.60485 -1.0587,-2.70647 -1.9701,-3.37235 l -0.4418,0.25471 c -2.4886,6.86434 -23.542,11.93665 -54.6449,12.20975 -20.0683,0.17488 -47.8694,-4.6335 -47.9185,-10.19066 -0.049,-5.56941 13.1702,-8.63182 13.1702,-8.63182 l -0.9358,-0.53393 c -8.8559,1.22128 -25.1775,5.46509 -25.1254,11.58993 0.08,8.85277 37.5898,13.24998 60.8556,13.04748 m 60.699,-61.00591 c -0.5431,10.39626 -10.1477,16.86784 -19.7461,22.336 l 0.8684,0.50324 c 10.2459,-2.88136 28.5191,-11.2708 27.0094,-24.17099 -0.7518,-6.4316798 -6.6311,-11.0283698 -14.2964,-11.0283698 -2.3873,0 -4.5107,0.42346 -6.2322,0.94818 l -0.01,0.0161 -0.3621,0.91444 c 6.8552,-1.34096 13.1212,3.66385 12.7652,10.4821698 m -79.1502,30.88807 c -3.1269,0.62292 -9.9422,2.18787 -9.9422,5.5019 0,4.59057 14.5818,8.10713 28.6572,8.10713 19.3688,0 27.301,-4.98334 27.66,-5.2411 l -8.0519,-4.66111 c -3.4276,0.81621 -9.1964,2.09887 -19.5896,2.09887 -11.5992,0 -19.1539,-1.98535 -19.1539,-4.16096 0,-0.46027 0.2884,-1.00954 0.8254,-1.40845 z m 47.5809,-15.47165 c -4.4524,1.26117 -14.4835,3.3171 -28.8321,3.3171 -14.0816,0 -25.5856,-2.40882 -25.6224,-5.24722 -0.024,-1.89023 2.2584,-2.71261 2.2584,-2.71261 l -0.405,-0.2332 c -6.7447,1.1906 -13.0045,3.03172 -12.9708,5.79036 0.064,5.00482 19.203,8.76378 36.7122,8.76378 14.8825,0 29.1819,-2.4978 35.629,-5.76888 z"
   style="fill:#007396;fill-opacity:1;fill-rule:nonzero;stroke:none;stroke-width:3.06855273"
   id="path4080"
   inkscape:connector-curvature="0" /><path
   d="m 603.58445,-79.460384 c 0,27.59243 -37.8107,38.15131 -37.8107,57.76856 0,13.7686002 9.132,22.40657017 14.1828,27.8686102 l -0.4081,0.23627 c -6.3795,-3.99219 -23.1645,-14.02021 -23.1645,-30.5842702 0,-23.25349 43.4323,-34.36472 43.4323,-60.77882 0,-3.2496 -0.4818,-5.74127 -0.8162,-7.08529 l 0.4388,-0.25162 c 1.3747,1.7276 4.1456,6.05119 4.1456,12.82656 m 12.4369,24.43488 -0.4542,-0.26083 c -8.2299,2.75864 -33.5608,12.75905 -33.5608,31.40051 0,10.54353 10.295,16.3830002 10.295,26.2698702 0,3.52883 -1.9915,6.83367 -3.6117,8.8128898 l 0.8132,0.46948 c 4.2868,-2.7862498 11.8753,-8.8159498 11.8753,-16.6039398 0,-6.5943102 -9.129,-14.5203802 -9.129,-22.9957202 0,-13.35743 17.6105,-23.83653 23.7722,-27.09226"
   style="fill:#ed8b00;fill-opacity:1;fill-rule:nonzero;stroke:none;stroke-width:3.06855273"
   id="path4082"
   inkscape:connector-curvature="0" /><path
   d="m 343.41995,456.28619 h -8.5306 v -17.93568 h 2.8722 v 15.7294 h 5.6584 z m 5.5264,0 h -2.869 v -17.93568 h 2.869 z m 15.1495,-2.52542 c -1.2949,1.85954 -3.0747,2.79239 -5.3424,2.79239 -4.3757,0 -6.5636,-2.96729 -6.5636,-8.90493 0,-3.06244 0.6076,-5.4252 1.8197,-7.07917 1.212,-1.65702 2.9028,-2.48551 5.0631,-2.48551 2.1081,0 3.6669,0.98193 4.6765,2.94888 l -1.3809,1.22434 c -0.7825,-1.24276 -1.792,-1.85955 -3.0287,-1.85955 -1.3133,0 -2.3321,0.61372 -3.0593,1.8442 -0.7242,1.2305 -1.0894,2.86603 -1.0894,4.90355 0,4.71022 1.3656,7.0669 4.0935,7.0669 1.2919,0 2.4732,-0.6168 3.535,-1.85957 z m 11.6114,2.52542 h -9.0093 v -17.93568 h 8.9019 v 2.23082 h -6.0297 v 5.4467 h 4.968 v 2.15411 h -4.968 v 5.84559 h 6.1371 z m 16.3953,0 h -2.9244 l -7.5455,-13.86984 v 13.86984 h -2.4181 v -17.93568 h 3.5841 l 6.8859,12.30183 v -12.30183 h 2.418 z m 14.1092,-4.97105 c 0,1.52508 -0.5585,2.77398 -1.6755,3.74978 -1.1138,0.97273 -2.6144,1.46062 -4.4892,1.46062 -1.7553,0 -3.4552,-0.55847 -5.1031,-1.67543 l 0.7703,-1.54041 c 1.4176,0.70885 2.7003,1.06172 3.8541,1.06172 1.0801,0 1.927,-0.23627 2.5377,-0.71498 0.6106,-0.47869 0.9174,-1.14456 0.9174,-1.99457 0,-1.06171 -0.6842,-1.97306 -2.0467,-2.73712 -1.2581,-0.69044 -2.5162,-1.38087 -3.7743,-2.07128 -1.3624,-0.99423 -2.0437,-2.28607 -2.0437,-3.88173 0,-1.45141 0.5064,-2.62668 1.5251,-3.51962 1.0188,-0.89602 2.3352,-1.34097 3.9462,-1.34097 1.6662,0 3.179,0.44188 4.5476,1.32563 l -0.6935,1.54347 c -1.1691,-0.4971 -2.3198,-0.74565 -3.4552,-0.74565 -0.9206,0 -1.6294,0.22399 -2.1235,0.66587 -0.497,0.44188 -0.7456,1.00956 -0.7456,1.69999 0,1.06478 0.6996,1.98533 2.0989,2.76476 1.2765,0.69043 2.5592,1.39004 3.8541,2.09888 1.3992,0.99114 2.0989,2.27688 2.0989,3.85104 m 11.4794,4.97105 h -9.0062 v -17.93568 h 8.8988 v 2.23082 h -6.0297 v 5.4467 h 4.968 v 2.15411 h -4.968 v 5.84559 h 6.1371 z m 12.5167,0 h -9.0093 v -17.93568 h 8.9019 v 2.23082 h -6.0328 v 5.4467 h 4.968 v 2.15411 h -4.968 v 5.84559 h 6.1402 z"
   style="fill:#007396;fill-opacity:1;fill-rule:nonzero;stroke:none;stroke-width:3.06855273"
   id="path4092"
   inkscape:connector-curvature="0" /><path
   d="m 457.06715,392.35873 h 1.3747 v -6.75388 h -2.0713 l -1.6846,4.60589 -1.8411,-4.60589 h -1.9915 v 6.75388 h 1.3011 v -5.13675 h 0.08 l 1.9178,5.13675 h 0.9973 l 1.9178,-5.13675 z m -11.1174,0 h 1.4607 v -5.60625 h 1.9086 v -1.14763 h -5.3638 v 1.14763 h 1.9945 z m -120.7199,28.10794 c 0,8.86812 -2.9949,15.54222 -8.9816,20.00083 l -4.3267,-3.66999 c 1.9025,-2.2339 3.1851,-4.90047 3.8357,-8.00584 0.4388,-2.12345 0.6536,-5.05699 0.6536,-8.81596 v -48.90659 h 8.819 z m 39.6027,5.71365 h -6.5329 l -0.6536,-4.40952 c -4.0321,3.48894 -8.2207,5.22882 -12.5719,5.22882 -8.1684,0 -12.2496,-3.75897 -12.2496,-11.26771 0,-4.30213 1.6601,-7.64685 4.9772,-10.04337 3.5932,-2.55918 8.8466,-3.83571 15.7631,-3.83571 h 2.9366 v -3.67919 c 0,-4.84219 -2.8016,-7.26633 -8.4078,-7.26633 -3.6485,0 -7.6192,0.79475 -11.9213,2.36892 l -1.2244,-5.14291 c 5.0631,-2.23389 10.206,-3.35085 15.4348,-3.35085 9.6322,0 14.4498,4.11187 14.4498,12.32946 z m -8.3311,-9.3867 v -9.63525 h -3.5073 c -7.8954,0 -11.8416,2.4487 -11.8416,7.34611 0,4.24688 2.0958,6.37031 6.2875,6.37031 2.8875,0 5.907,-1.36243 9.0614,-4.08117 m 49.1521,-31.27162 c -2.6666,15.02363 -6.8582,28.57436 -12.5749,40.65832 h -10.3656 L 370.22095,385.522 h 9.0584 l 7.7604,24.98109 1.7153,7.51488 c 4.0259,-11.10203 6.7201,-21.93709 8.0826,-32.49597 z m 34.4537,40.65832 h -6.5329 l -0.6506,-4.40952 c -4.029,3.48894 -8.2206,5.22882 -12.5749,5.22882 -8.1624,0 -12.2435,-3.75897 -12.2435,-11.26771 0,-4.30213 1.6601,-7.64685 4.9772,-10.04337 3.5933,-2.55918 8.8466,-3.83571 15.757,-3.83571 h 2.9427 v -3.67919 c 0,-4.84219 -2.8077,-7.26633 -8.414,-7.26633 -3.6485,0 -7.6192,0.79475 -11.9182,2.36892 l -1.2213,-5.14291 c 5.057,-2.23389 10.206,-3.35085 15.4287,-3.35085 9.6322,0 14.4498,4.11187 14.4498,12.32946 z m -8.325,-9.3867 v -9.63525 h -3.5135 c -7.8892,0 -11.8354,2.4487 -11.8354,7.34611 0,4.24688 2.0928,6.37031 6.2814,6.37031 2.8875,0 5.9069,-1.36243 9.0675,-4.08117"
   style="fill:#007396;fill-opacity:1;fill-rule:nonzero;stroke:none;stroke-width:3.06855273"
   id="path4094"
   inkscape:connector-curvature="0" /><path
   d="m 212.98495,388.21956 c 0,-3.57179 13.5446,-5.57556 19.8536,-6.06039 l 0.6014,0.34981 c -2.4242,0.4388 -12.1453,2.15412 -12.1453,4.39111 0,2.43336 14.9101,4.029 23.5634,4.029 14.7014,0 24.6926,-2.2247 27.3807,-2.95808 l 3.7589,2.18786 c -2.5745,1.26119 -13.6274,4.56602 -31.1366,4.56602 -19.4607,0 -31.8761,-3.80807 -31.8761,-6.50533 m 29.6576,50.12481 c -7.7021,0.0676 -17.1041,-0.57076 -25.0149,-1.89944 l -0.7334,0.4204 c 7.8801,2.31063 18.8502,3.70679 30.9065,3.5994 23.6739,-0.20558 42.8677,-6.07573 43.2482,-13.1426 l -0.2731,-0.15964 c -1.5895,1.93627 -11.8293,10.86575 -48.1333,11.18182 m 2.016,-4.55067 c 19.3749,-0.16877 41.0542,-3.96151 40.9989,-10.33489 -0.01,-1.15685 -0.764,-1.94852 -1.4176,-2.42722 l -0.3161,0.18411 c -1.792,4.9373 -16.9323,8.58582 -39.2989,8.77914 -14.4314,0.12575 -34.4231,-3.33245 -34.4568,-7.32772 -0.037,-4.00446 9.4695,-6.20768 9.4695,-6.20768 l -0.672,-0.38357 c -6.3703,0.8776 -18.1075,3.93081 -18.0676,8.33419 0.055,6.36723 27.0309,9.52785 43.7606,9.38364 m 43.6502,-43.87109 c -0.3897,7.47804 -7.297,12.12998 -14.1982,16.06386 l 0.626,0.36209 c 7.3645,-2.07435 20.5071,-8.10711 19.4208,-17.38336 -0.5431,-4.6243 -4.7685,-7.92914 -10.2827,-7.92914 -1.7153,0 -3.2434,0.3038 -4.4801,0.67816 v 0.0128 l -0.2608,0.65975 c 4.9281,-0.96659 9.4327,2.63588 9.178,7.53636 m -56.9185,22.21325 c -2.2493,0.44802 -7.1498,1.57417 -7.1498,3.95537 0,3.30175 10.4853,5.83026 20.6084,5.83026 13.9282,0 19.6326,-3.58408 19.8904,-3.76819 l -5.7904,-3.35087 c -2.464,0.5861 -6.6127,1.50667 -14.0846,1.50667 -8.3403,0 -13.7747,-1.42688 -13.7747,-2.98877 0,-0.33448 0.2055,-0.72724 0.5922,-1.0157 z m 34.2174,-11.12658 c -3.2036,0.90523 -10.4177,2.38428 -20.7342,2.38428 -10.1262,0 -18.3991,-1.73066 -18.4267,-3.77433 -0.016,-1.35629 1.6264,-1.94852 1.6264,-1.94852 l -0.2915,-0.16878 c -4.8514,0.85613 -9.353,2.18175 -9.3284,4.16709 0.046,3.59635 13.8084,6.29974 26.3987,6.29974 10.7062,0 20.9858,-1.79509 25.6224,-4.14867 z"
   style="fill:#007396;fill-opacity:1;fill-rule:nonzero;stroke:none;stroke-width:3.06855273"
   id="path4096"
   inkscape:connector-curvature="0" /><path
   d="m 262.84675,320.73379 c 0,19.84128 -27.1904,27.43593 -27.1904,41.54206 0,9.90224 6.5667,16.11299 10.1999,20.04073 l -0.2946,0.16878 c -4.5875,-2.8691 -16.6561,-10.08019 -16.6561,-21.99231 0,-16.72055 31.2317,-24.71108 31.2317,-43.70541 0,-2.33824 -0.3467,-4.13027 -0.5892,-5.09686 l 0.3161,-0.18106 c 0.9912,1.24279 2.9826,4.35122 2.9826,9.22407 m 8.9418,17.57055 -0.3253,-0.18411 c -5.9192,1.98227 -24.1341,9.17189 -24.1341,22.57841 0,7.58237 7.4044,11.78324 7.4044,18.88999 0,2.53772 -1.433,4.91584 -2.5991,6.33965 l 0.5861,0.33752 c 3.0809,-2.00375 8.5398,-6.34269 8.5398,-11.9428 0,-4.74091 -6.5636,-10.43921 -6.5636,-16.53336 0,-9.60764 12.6639,-17.14399 17.0918,-19.4853"
   style="fill:#ed8b00;fill-opacity:1;fill-rule:nonzero;stroke:none;stroke-width:3.06855273"
   id="path4098"
   inkscape:connector-curvature="0" /><path
   d="m 548.20815,511.91629 h -8.3404 v -17.54293 h 2.8047 v 15.38574 h 5.5357 z m 5.4037,0 h -2.8077 v -17.54293 h 2.8077 z m 14.8119,-2.47018 c -1.2643,1.81966 -3.0041,2.73102 -5.2227,2.73102 -4.2776,0 -6.4194,-2.90286 -6.4194,-8.70856 0,-2.99799 0.5953,-5.30553 1.7828,-6.92267 1.1845,-1.62018 2.8354,-2.43028 4.9496,-2.43028 2.0621,0 3.5841,0.96045 4.5721,2.88444 l -1.3501,1.19366 c -0.761,-1.21207 -1.7491,-1.81658 -2.9642,-1.81658 -1.2796,0 -2.2769,0.60143 -2.9888,1.80431 -0.7088,1.20288 -1.0648,2.80159 -1.0648,4.79308 0,4.60897 1.3348,6.91345 4.0014,6.91345 1.2673,0 2.418,-0.6045 3.4582,-1.81658 z m 11.3598,2.47018 h -8.8099 v -17.54293 h 8.7055 v 2.18175 h -5.8977 v 5.33008 h 4.8605 v 2.10504 h -4.8605 v 5.71669 h 6.0021 z m 16.0362,0 h -2.8599 l -7.3829,-13.56607 v 13.56607 h -2.3628 v -17.54293 h 3.5074 l 6.7324,12.03488 v -12.03488 h 2.3658 z m 13.7993,-4.8606 c 0,1.49135 -0.5493,2.71262 -1.6386,3.66693 -1.0924,0.95125 -2.5561,1.42688 -4.3911,1.42688 -1.7153,0 -3.3785,-0.54314 -4.9925,-1.63861 l 0.7579,-1.50358 c 1.3839,0.69349 2.642,1.03716 3.7651,1.03716 1.0587,0 1.8841,-0.23319 2.4855,-0.69962 0.5953,-0.46949 0.893,-1.11697 0.893,-1.94854 0,-1.04023 -0.6659,-1.93319 -2.0007,-2.67884 -1.2305,-0.67509 -2.461,-1.35017 -3.6884,-2.02524 -1.3379,-0.97274 -2.0038,-2.23698 -2.0038,-3.7958 0,-1.42075 0.5002,-2.56838 1.4944,-3.44292 0.9973,-0.87453 2.2861,-1.31334 3.8603,-1.31334 1.6263,0 3.1115,0.43267 4.4432,1.298 l -0.6751,1.50972 c -1.1445,-0.4879 -2.2707,-0.72724 -3.3754,-0.72724 -0.9021,0 -1.5987,0.2148 -2.0835,0.64746 -0.4849,0.43574 -0.7273,0.98808 -0.7273,1.66315 0,1.04023 0.6843,1.93932 2.0529,2.70341 1.2489,0.67508 2.5039,1.36243 3.7682,2.05286 1.3685,0.96965 2.0559,2.22469 2.0559,3.76816 m 11.2248,4.8606 h -8.8068 v -17.54293 h 8.7056 v 2.18175 h -5.9009 v 5.33008 h 4.8606 v 2.10504 h -4.8606 v 5.71669 h 6.0021 z m 12.2405,0 h -8.8068 v -17.54293 h 8.7055 v 2.18175 h -5.9008 v 5.33008 h 4.8606 v 2.10504 h -4.8606 v 5.71669 h 6.0021 z"
   style="fill:#007396;fill-opacity:1;fill-rule:nonzero;stroke:none;stroke-width:3.06855273"
   id="path4100"
   inkscape:connector-curvature="0" /><path
   d="m 659.38735,449.38196 h 1.3502 v -6.60354 h -2.0284 l -1.6478,4.50157 -1.7982,-4.50157 h -1.9485 v 6.60354 h 1.2735 v -5.02629 h 0.071 l 1.881,5.02629 h 0.9727 l 1.8749,-5.02629 z m -10.875,0 h 1.43 v -5.48351 h 1.8718 v -1.12003 h -5.2442 v 1.12003 h 1.9424 z m -118.0595,27.49116 c 0,8.67478 -2.9274,15.19853 -8.7822,19.56203 l -4.2315,-3.59022 c 1.8626,-2.1848 3.1145,-4.79308 3.7528,-7.82788 0.4265,-2.07741 0.6383,-4.94956 0.6383,-8.62262 V 428.5649 h 8.6226 z m 38.7313,5.5909 h -6.3888 l -0.6382,-4.31438 c -3.9431,3.40915 -8.0396,5.1122 -12.2988,5.1122 -7.9844,0 -11.9765,-3.67304 -11.9765,-11.01917 0,-4.20698 1.6232,-7.47807 4.8698,-9.82244 3.5135,-2.50393 8.6502,-3.75285 15.4133,-3.75285 h 2.8722 v -3.59633 c 0,-4.73478 -2.7403,-7.1037 -8.2238,-7.1037 -3.5687,0 -7.4535,0.7702 -11.6574,2.31369 l -1.1967,-5.02935 c 4.9496,-2.18482 9.982,-3.27416 15.0911,-3.27416 9.4205,0 14.1338,4.0198 14.1338,12.05634 z m -8.147,-9.18417 v -9.42355 h -3.4337 c -7.7175,0 -11.5777,2.39656 -11.5777,7.18655 0,4.15177 2.0498,6.22918 6.1494,6.22918 2.82,0 5.775,-1.32869 8.862,-3.99218 m 48.0719,-30.58121 c -2.6083,14.69223 -6.7048,27.9453 -12.2957,39.76538 h -10.1446 l -12.2159,-39.76538 h 8.865 l 7.5824,24.43182 1.6754,7.34611 c 3.9431,-10.85961 6.5759,-21.45226 7.9077,-31.77793 z m 33.6989,39.76538 h -6.3918 l -0.6383,-4.31438 c -3.943,3.40915 -8.0396,5.1122 -12.2957,5.1122 -7.9874,0 -11.9796,-3.67304 -11.9796,-11.01917 0,-4.20698 1.6232,-7.47807 4.8698,-9.82244 3.5135,-2.50393 8.6503,-3.75285 15.4133,-3.75285 h 2.8722 v -3.59633 c 0,-4.73478 -2.7402,-7.1037 -8.2237,-7.1037 -3.5657,0 -7.4504,0.7702 -11.6575,2.31369 l -1.1998,-5.02935 c 4.9527,-2.18482 9.9821,-3.27416 15.0943,-3.27416 9.4235,0 14.1368,4.0198 14.1368,12.05634 z m -8.1501,-9.18417 v -9.42355 h -3.4306 c -7.7205,0 -11.5807,2.39656 -11.5807,7.18655 0,4.15177 2.0528,6.22918 6.1493,6.22918 2.8231,0 5.7781,-1.32869 8.862,-3.99218"
   style="fill:#007396;fill-opacity:1;fill-rule:nonzero;stroke:none;stroke-width:3.06855273"
   id="path4102"
   inkscape:connector-curvature="0" /><path
   d="m 534.24835,344.29722 c 0,-4.968 18.8378,-7.75118 27.6078,-8.42624 l 0.8377,0.48174 c -3.3693,0.61372 -16.8894,2.99799 -16.8894,6.10949 0,3.38463 20.7343,5.60318 32.7691,5.60318 20.4427,0 34.3371,-3.09309 38.0747,-4.11185 l 5.2288,3.04093 c -3.581,1.75521 -18.9514,6.34884 -43.3035,6.34884 -27.0585,0 -44.3252,-5.29324 -44.3252,-9.04609 m 41.2444,69.70524 c -10.7123,0.0921 -23.7874,-0.79476 -34.7882,-2.64202 l -1.0187,0.58609 c 10.9578,3.21279 26.2146,5.1521 42.9781,5.00787 32.9225,-0.28844 59.6128,-8.45386 60.1406,-18.27937 l -0.3805,-0.22092 c -2.2063,2.69418 -16.4444,15.10648 -66.9313,15.54835 m 2.8016,-6.33044 c 26.9449,-0.23319 57.0905,-5.50803 57.0137,-14.37001 -0.013,-1.60793 -1.0586,-2.70953 -1.9669,-3.37233 l -0.4419,0.25162 c -2.4916,6.8674 -23.545,11.93972 -54.6509,12.21281 -20.0684,0.17488 -47.8695,-4.63351 -47.9185,-10.19065 -0.049,-5.57248 13.1702,-8.63183 13.1702,-8.63183 l -0.9359,-0.53392 c -8.8559,1.22127 -25.1775,5.46202 -25.1253,11.58683 0.077,8.85585 37.5897,13.25309 60.8555,13.04748 m 60.7021,-61.00589 c -0.5431,10.39627 -10.1477,16.86785 -19.7461,22.33907 l 0.8684,0.50325 c 10.2459,-2.88443 28.5222,-11.27386 27.0094,-24.17406 -0.7518,-6.43168 -6.6311,-11.02839 -14.2964,-11.02839 -2.3873,0 -4.5107,0.42347 -6.2292,0.94514 l -0.01,0.0185 -0.3621,0.91444 c 6.8552,-1.34097 13.1211,3.66384 12.7652,10.48217 m -79.1534,30.89112 c -3.1268,0.62291 -9.9421,2.18787 -9.9421,5.50192 0,4.59055 14.5818,8.1071 28.6572,8.1071 19.3718,0 27.304,-4.98639 27.663,-5.24416 l -8.0518,-4.65805 c -3.4276,0.81622 -9.1965,2.09581 -19.5897,2.09581 -11.5991,0 -19.1539,-1.98536 -19.1539,-4.1579 0,-0.46332 0.2854,-1.00953 0.8254,-1.41152 z m 47.5844,-15.47472 c -4.4525,1.26118 -14.4867,3.3171 -28.8352,3.3171 -14.0816,0 -25.5856,-2.40881 -25.6225,-5.24721 -0.024,-1.88716 2.2585,-2.71261 2.2585,-2.71261 l -0.405,-0.2332 c -6.7417,1.19058 -13.0046,3.03172 -12.9708,5.79342 0.065,5.00175 19.203,8.76071 36.7121,8.76071 14.8856,0 29.185,-2.49778 35.6321,-5.76887 z"
   style="fill:#007396;fill-opacity:1;fill-rule:nonzero;stroke:none;stroke-width:3.06855273"
   id="path4104"
   inkscape:connector-curvature="0" /><path
   d="m 603.58785,250.4486 c 0,27.5955 -37.8138,38.15132 -37.8138,57.77165 0,13.7686 9.132,22.40657 14.1859,27.86858 l -0.4112,0.23629 c -6.3764,-3.99218 -23.1614,-14.02023 -23.1614,-30.58427 0,-23.25655 43.4323,-34.36778 43.4323,-60.78188 0,-3.2496 -0.4818,-5.74127 -0.8163,-7.08529 l 0.4358,-0.25471 c 1.3778,1.73067 4.1487,6.05426 4.1487,12.82963 m 12.4368,24.43489 -0.4541,-0.25775 c -8.2299,2.75555 -33.5639,12.75596 -33.5639,31.40049 0,10.54355 10.2981,16.38301 10.2981,26.26989 0,3.52883 -1.9915,6.83672 -3.6148,8.81287 l 0.8163,0.4695 c 4.2867,-2.78625 11.8753,-8.81596 11.8753,-16.60396 0,-6.59737 -9.129,-14.52039 -9.129,-22.99573 0,-13.35741 17.6105,-23.8365 23.7721,-27.09531"
   style="fill:#ed8b00;fill-opacity:1;fill-rule:nonzero;stroke:none;stroke-width:3.06855273"
   id="path4106"
   inkscape:connector-curvature="0" /><path
   d="m 888.12245,126.24465 c -1.2949,1.8626 -3.0747,2.79238 -5.3424,2.79238 -4.3788,0 -6.5698,-2.97036 -6.5698,-8.90801 0,-3.06547 0.6076,-5.42826 1.8229,-7.08529 1.212,-1.65703 2.9028,-2.48552 5.063,-2.48552 2.108,0 3.673,0.98193 4.6826,2.94888 l -1.3838,1.22435 c -0.7826,-1.24277 -1.7921,-1.85955 -3.0349,-1.85955 -1.3072,0 -2.329,0.61371 -3.0562,1.8442 -0.7272,1.23357 -1.0893,2.86909 -1.0893,4.90663 0,4.71635 1.3623,7.07299 4.0964,7.07299 1.2919,0 2.4732,-0.61983 3.5349,-1.85953 z m 16.3523,-6.7815 c 0,3.2281 -0.7026,5.66454 -2.1019,7.31234 -1.2766,1.50974 -3.0564,2.26154 -5.3424,2.26154 -2.2861,0 -3.9984,-0.66588 -5.1305,-1.99456 -1.2429,-1.46983 -1.8628,-3.7866 -1.8628,-6.94106 0,-3.20664 0.6996,-5.63694 2.0989,-7.28475 1.2796,-1.50666 3.0564,-2.25845 5.3456,-2.25845 4.6642,0 6.9931,2.97035 6.9931,8.90494 m -3.0318,0.50631 c 0,-2.55303 -0.3621,-4.41565 -1.0893,-5.58477 -0.6719,-1.08013 -1.7275,-1.62327 -3.1667,-1.62327 -2.7463,0 -4.121,2.26152 -4.121,6.78151 0,2.58985 0.3651,4.46781 1.0923,5.63693 0.6751,1.08013 1.7276,1.62326 3.1637,1.62326 2.7495,0 4.121,-2.27993 4.121,-6.83366 m 24.8063,8.8006 h -3.0041 c -0.104,-5.06925 -0.399,-9.83778 -0.8747,-14.30559 h -0.025 l -4.5752,14.30559 h -2.2892 l -4.5445,-14.30559 h -0.027 c -0.3406,4.28983 -0.5523,9.05837 -0.6382,14.30559 h -2.7372 c 0.172,-6.37952 0.6168,-12.36319 1.3286,-17.94796 h 3.7222 l 4.3329,13.18864 h 0.025 l 4.3634,-13.18864 h 3.5657 c 0.7763,6.54215 1.2366,12.52584 1.3778,17.94796 m 15.2661,-12.49822 c 0,1.86263 -0.5585,3.31712 -1.6755,4.36042 -1.2766,1.20902 -3.2128,1.81043 -5.7966,1.81043 h -0.8254 v 6.32737 h -2.8722 V 110.8221 c 0.4451,0 1.1599,-0.009 2.1543,-0.0276 h 2.4456 c 4.3788,0 6.5698,1.8258 6.5698,5.47738 m -3.0042,0.29458 c 0,-2.42724 -1.3502,-3.64236 -4.0443,-3.64236 h -1.249 v 7.36451 h 1.3042 c 2.6573,0 3.9891,-1.2397 3.9891,-3.72215 m 18.0247,12.20364 h -3.0838 c -0.1966,-0.85 -0.4972,-2.0989 -0.9023,-3.74978 h -6.4102 c -0.3006,1.19061 -0.5738,2.43643 -0.8254,3.74978 h -2.7894 c 1.4147,-6.00822 3.1177,-11.99192 5.1062,-17.94797 h 3.6914 c 2.0037,5.86708 3.7436,11.85076 5.2135,17.94797 m -4.4648,-5.90389 c -0.9942,-3.57795 -1.9363,-6.71708 -2.8199,-9.41127 -1.028,3.40303 -1.9086,6.54216 -2.6298,9.41127 z m 16.8065,-9.78255 h -4.3635 v 15.68644 h -2.8722 v -15.68644 h -4.3603 v -2.26153 h 11.596 z m 5.4742,15.68644 h -2.8752 v -17.94797 h 2.8752 z m 15.9812,-5.58476 c 0,1.68462 -0.5708,3.02559 -1.7062,4.01673 -1.2581,1.0832 -3.0716,1.62326 -5.4497,1.62326 -0.5125,0 -1.2643,-0.0128 -2.2431,-0.0276 -0.985,-0.0185 -1.7092,-0.0276 -2.1695,-0.0276 v -17.94798 h 5.4253 c 1.7366,0 3.0592,0.3897 3.9613,1.16912 0.8348,0.72725 1.249,1.72146 1.249,2.97957 0,1.91477 -0.85,3.24346 -2.5499,3.98911 0.9879,0.15963 1.8072,0.60143 2.4426,1.32869 0.6933,0.79781 1.0402,1.76441 1.0402,2.89671 m -3.8572,-7.78798 c 0,-1.68464 -0.9543,-2.52543 -2.8722,-2.52543 h -2.0221 v 5.47429 h 1.6263 c 1.1169,0 1.9638,-0.30991 2.5499,-0.92975 0.4787,-0.51245 0.7181,-1.18754 0.7181,-2.01911 m 0.8225,8.02733 c 0,-2.05288 -1.2672,-3.0839 -3.8019,-3.0839 h -1.9147 v 6.27518 c 0.6013,0.0736 1.3133,0.10739 2.1265,0.10739 2.3935,0 3.5901,-1.09855 3.5901,-3.2987 m 15.13105,5.34542 h -8.53665 v -17.94797 h 2.8752 v 15.74168 h 5.66145 z m 11.6758,0 h -9.0153 v -17.94797 h 8.908 v 2.23391 h -6.0389 v 5.44974 h 4.9742 v 2.15413 h -4.9742 v 5.85173 h 6.1462 z"
   style="fill:#007396;fill-opacity:1;fill-rule:nonzero;stroke:none;stroke-width:3.06855273"
   id="path4108"
   inkscape:connector-curvature="0" /><path
   d="m 999.48695,64.888936 h 1.37485 v -6.75389 h -2.07135 l -1.6847,4.60591 -1.8411,-4.60591 h -1.9945 v 6.75389 h 1.3009 v -5.13983 h 0.081 l 1.9209,5.13983 h 0.9973 l 1.9179,-5.13983 z m -11.1204,0 h 1.4606 v -5.60931 h 1.9086 v -1.14458 h -5.3638 v 1.14458 h 1.9946 z m -120.7567,28.11407 c 0,8.874254 -2.9949,15.548364 -8.9848,20.010024 l -4.3266,-3.67304 c 1.9025,-2.23391 3.1852,-4.90048 3.8357,-8.00585 0.4388,-2.123454 0.6536,-5.060054 0.6536,-8.819034 v -48.92194 h 8.8221 z m 39.6149,5.71978 h -6.5359 l -0.6536,-4.41258 c -4.0321,3.48896 -8.2238,5.22882 -12.575,5.22882 -8.1716,0 -12.2528,-3.75898 -12.2528,-11.27079 0,-4.3021 1.6602,-7.64684 4.9803,-10.04337 3.5933,-2.56224 8.8466,-3.83876 15.7663,-3.83876 h 2.9365 v -3.6792 c 0,-4.84524 -2.8016,-7.2694 -8.4109,-7.2694 -3.6485,0 -7.6222,0.79169 -11.9243,2.36892 l -1.2244,-5.14595 c 5.0632,-2.23085 10.2092,-3.34779 15.4379,-3.34779 9.6353,0 14.4559,4.11185 14.4559,12.3325 z m -8.3342,-9.39285 v -9.63524 h -3.5103 c -7.8955,0 -11.8446,2.44563 -11.8446,7.34611 0,4.24996 2.0989,6.37338 6.2904,6.37338 2.8876,0 5.9102,-1.36242 9.0645,-4.08425 m 49.1675,-31.28082 c -2.6697,15.02978 -6.8613,28.58357 -12.5781,40.67367 h -10.3686 l -12.4982,-40.67367 h 9.0645 l 7.7604,24.9903 1.7153,7.51795 c 4.026,-11.10815 6.7231,-21.94628 8.0857,-32.50825 z m 34.466,40.67367 h -6.536 l -0.6537,-4.41258 c -4.0289,3.48896 -8.2207,5.22882 -12.5779,5.22882 -8.1655,0 -12.2467,-3.75898 -12.2467,-11.27079 0,-4.3021 1.6602,-7.64684 4.9803,-10.04337 3.5933,-2.56224 8.8466,-3.83876 15.7633,-3.83876 h 2.9395 v -3.6792 c 0,-4.84524 -2.8077,-7.2694 -8.4139,-7.2694 -3.6485,0 -7.6222,0.79169 -11.9243,2.36892 l -1.2214,-5.14595 c 5.06,-2.23085 10.2092,-3.34779 15.4349,-3.34779 9.6353,0 14.4559,4.11185 14.4559,12.3325 z m -8.3312,-9.39285 v -9.63524 h -3.5134 c -7.8924,0 -11.8385,2.44563 -11.8385,7.34611 0,4.24996 2.0928,6.37338 6.2844,6.37338 2.8876,0 5.9069,-1.36242 9.0675,-4.08425"
   style="fill:#007396;fill-opacity:1;fill-rule:nonzero;stroke:none;stroke-width:3.06855273"
   id="path4110"
   inkscape:connector-curvature="0" /><path
   d="m 755.33025,60.748216 c 0,-3.57179 13.5508,-5.57555 19.8597,-6.06039 l 0.6015,0.34676 c -2.4243,0.44187 -12.1485,2.15412 -12.1485,4.39416 0,2.43336 14.9162,4.02901 23.5726,4.02901 14.7015,0 24.6957,-2.22469 27.387,-2.95809 l 3.7588,2.18789 c -2.5744,1.26118 -13.6305,4.566 -31.1458,4.566 -19.4638,0 -31.8853,-3.80808 -31.8853,-6.50534 m 29.6667,50.140164 c -7.705,0.0676 -17.1103,-0.57075 -25.024,-1.89944 l -0.7333,0.42039 c 7.8831,2.31063 18.8593,3.70681 30.9156,3.60248 23.6831,-0.20864 42.8829,-6.08187 43.2635,-13.148744 l -0.2761,-0.15964 c -1.5865,1.936264 -11.8294,10.868804 -48.1457,11.184874 m 2.0161,-4.55372 c 19.381,-0.16877 41.0664,-3.9615 41.0112,-10.337964 -0.018,-1.15377 -0.7611,-1.94546 -1.4147,-2.42415 l -0.3191,0.18104 c -1.792,4.94037 -16.9353,8.588874 -39.3111,8.782194 -14.4345,0.12883 -34.4322,-3.332434 -34.4691,-7.327694 -0.034,-4.00754 9.4756,-6.21076 9.4756,-6.21076 l -0.672,-0.38357 c -6.3733,0.87761 -18.1136,3.93082 -18.0736,8.33726 0.055,6.367264 27.0369,9.530924 43.7728,9.383644 m 43.6625,-43.880324 c -0.3897,7.475 -7.297,12.13307 -14.2013,16.06696 l 0.626,0.3621 c 7.3676,-2.07436 20.5133,-8.11019 19.427,-17.3895 -0.5432,-4.62737 -4.7717,-7.93222 -10.2859,-7.93222 -1.7153,0 -3.2434,0.30379 -4.48,0.68122 v 0.0128 l -0.2608,0.65668 c 4.9311,-0.96659 9.4387,2.63589 9.1811,7.5425 m -56.9339,22.2194 c -2.2493,0.44495 -7.1528,1.5711 -7.1528,3.95536 0,3.30177 10.4883,5.83333 20.6145,5.83333 13.9342,0 19.6386,-3.58714 19.8995,-3.77125 l -5.7933,-3.35393 c -2.4641,0.58916 -6.6159,1.50973 -14.091,1.50973 -8.3433,0 -13.7778,-1.42689 -13.7778,-2.99186 0,-0.3314 0.2057,-0.72722 0.5924,-1.01569 z m 34.2296,-11.1327 c -3.2067,0.90828 -10.4208,2.38733 -20.7434,2.38733 -10.1292,0 -18.4052,-1.73374 -18.4298,-3.77432 -0.018,-1.35938 1.6233,-1.95161 1.6233,-1.95161 l -0.2915,-0.16877 c -4.8513,0.85612 -9.356,2.18172 -9.3284,4.16708 0.043,3.5994 13.8116,6.30281 26.4049,6.30281 10.7093,0 20.9921,-1.79511 25.6317,-4.15176 z"
   style="fill:#007396;fill-opacity:1;fill-rule:nonzero;stroke:none;stroke-width:3.06855273"
   id="path4112"
   inkscape:connector-curvature="0" /><path
   d="m 805.20705,-6.7583938 c 0,19.8504598 -27.1995,27.4420498 -27.1995,41.5543298 0,9.9053 6.5698,16.1191 10.2029,20.04687 l -0.2946,0.17182 c -4.5875,-2.87217 -16.6623,-10.08634 -16.6623,-22.00154 0,-16.72667 31.244,-24.7202498 31.244,-43.72072 0,-2.33825 -0.3467,-4.13027 -0.5891,-5.09687 l 0.3161,-0.18105 c 0.9911,1.24276 2.9825,4.35428 2.9825,9.2271402 m 8.9449,17.5766598 -0.3252,-0.18717 c -5.9193,1.98534 -24.1434,9.17804 -24.1434,22.5876 0,7.58547 7.4074,11.78632 7.4074,18.89616 0,2.54076 -1.433,4.91889 -2.599,6.33962 l 0.5861,0.33755 c 3.0839,-2.00375 8.5429,-6.34271 8.5429,-11.9428 0,-4.74398 -6.5667,-10.44537 -6.5667,-16.54258 0,-9.60763 12.6669,-17.14707 17.0979,-19.48838"
   style="fill:#ed8b00;fill-opacity:1;fill-rule:nonzero;stroke:none;stroke-width:3.06855273"
   id="path4114"
   inkscape:connector-curvature="0" /><path
   d="m 1134.8353,179.51688 c -1.2642,1.81964 -3.0041,2.731 -5.2227,2.731 -4.2806,0 -6.4225,-2.90285 -6.4225,-8.70856 0,-2.99796 0.5923,-5.30859 1.7798,-6.92879 1.1875,-1.62019 2.8383,-2.4303 4.9527,-2.4303 2.062,0 3.5901,0.96354 4.5751,2.88445 l -1.3532,1.19673 c -0.7609,-1.21515 -1.749,-1.81964 -2.9613,-1.81964 -1.2826,0 -2.2798,0.60142 -2.9886,1.8043 -0.712,1.20595 -1.0678,2.80465 -1.0678,4.79922 0,4.60896 1.3348,6.91345 4.0043,6.91345 1.2644,0 2.418,-0.60758 3.4582,-1.81964 z m 15.9872,-6.62809 c 0,3.15447 -0.6844,5.53568 -2.0529,7.14666 -1.2489,1.47597 -2.9888,2.21243 -5.2259,2.21243 -2.2338,0 -3.9061,-0.65053 -5.0169,-1.95161 -1.2121,-1.43607 -1.8198,-3.70067 -1.8198,-6.78455 0,-3.13608 0.6844,-5.51113 2.0529,-7.12212 1.2489,-1.47291 2.9918,-2.20937 5.2258,-2.20937 4.5567,0 6.8368,2.90287 6.8368,8.70856 m -2.9643,0.49405 c 0,-2.49781 -0.3529,-4.31746 -1.0648,-5.45895 -0.6598,-1.0556 -1.6907,-1.58645 -3.0931,-1.58645 -2.688,0 -4.029,2.20935 -4.029,6.62807 0,2.53154 0.356,4.36962 1.0648,5.51111 0.6596,1.05559 1.6907,1.58645 3.0931,1.58645 2.688,0 4.029,-2.22776 4.029,-6.68023 m 24.2537,8.60421 h -2.9365 c -0.1004,-4.95571 -0.3896,-9.61992 -0.856,-13.98646 h -0.025 l -4.4741,13.98646 h -2.2369 l -4.4463,-13.98646 h -0.025 c -0.3315,4.19471 -0.5371,8.85585 -0.626,13.98646 h -2.6759 c 0.172,-6.23836 0.6076,-12.08703 1.3011,-17.54599 h 3.6394 l 4.2376,12.89407 h 0.025 l 4.2653,-12.89407 h 3.483 c 0.7609,6.39488 1.2121,12.24353 1.3499,17.54599 m 14.9225,-12.21897 c 0,1.81965 -0.5462,3.2404 -1.6356,4.26221 -1.2488,1.18139 -3.1422,1.77056 -5.6674,1.77056 h -0.8073 v 6.1862 h -2.8077 v -17.54599 c 0.4358,0 1.1324,-0.009 2.105,-0.0276 h 2.3905 c 4.2807,0 6.4225,1.7859 6.4225,5.35464 m -2.9367,0.28844 c 0,-2.37507 -1.3194,-3.56259 -3.9522,-3.56259 h -1.2214 v 7.20188 h 1.2735 c 2.5993,0 3.9001,-1.21514 3.9001,-3.63929 m 17.6228,11.93052 h -3.0164 c -0.1903,-0.83463 -0.4848,-2.05286 -0.8808,-3.6669 h -6.269 c -0.2914,1.16297 -0.5583,2.38118 -0.8039,3.6669 h -2.7278 c 1.3837,-5.87628 3.0501,-11.72494 4.9893,-17.54598 h 3.6117 c 1.9578,5.73514 3.6608,11.58379 5.0969,17.54598 m -4.3666,-5.77193 c -0.9696,-3.49817 -1.8902,-6.56671 -2.7554,-9.20261 -1.0036,3.32939 -1.8658,6.39488 -2.5714,9.20261 z m 16.4321,-9.56469 h -4.2654 v 15.33662 h -2.8077 v -15.33662 h -4.2652 v -2.20939 h 11.3383 z m 5.3515,15.33662 h -2.8107 v -17.54601 h 2.8107 z m 15.6221,-5.45895 c 0,1.64781 -0.5554,2.95502 -1.6662,3.92468 -1.2305,1.05865 -3.0041,1.58645 -5.3271,1.58645 -0.5001,0 -1.2366,-0.009 -2.1939,-0.0276 -0.9636,-0.0185 -1.6693,-0.0245 -2.1204,-0.0245 v -17.54605 h 5.3054 c 1.697,0 2.9888,0.38051 3.8696,1.14151 0.8161,0.7119 1.2212,1.68157 1.2212,2.91206 0,1.8718 -0.8315,3.1698 -2.4917,3.90013 0.9666,0.15642 1.7645,0.58915 2.3874,1.30107 0.6781,0.77941 1.0157,1.72144 1.0157,2.83227 m -3.7682,-7.61616 c 0,-1.6478 -0.936,-2.47017 -2.8077,-2.47017 h -1.9792 v 5.35462 h 1.5895 c 1.0924,0 1.9209,-0.30379 2.4947,-0.91135 0.4664,-0.50019 0.7027,-1.15992 0.7027,-1.9731 m 0.8039,7.84938 c 0,-2.00991 -1.2396,-3.01641 -3.7191,-3.01641 h -1.8717 v 6.13405 c 0.5891,0.0736 1.2857,0.1043 2.0804,0.1043 2.3383,0 3.5104,-1.07092 3.5104,-3.22197 m 14.7904,5.22574 h -8.3464 v -17.54595 h 2.8108 v 15.3888 h 5.5356 z m 11.4152,0 h -8.813 v -17.54595 h 8.7055 v 2.18175 h -5.9008 v 5.33008 h 4.8636 v 2.10503 h -4.8636 v 5.71979 h 6.0083 z"
   style="fill:#007396;fill-opacity:1;fill-rule:nonzero;stroke:none;stroke-width:3.06855273"
   id="path4116"
   inkscape:connector-curvature="0" /><path
   d="m 1243.6657,119.45485 h 1.3502 v -6.60351 h -2.0283 l -1.6478,4.50156 -1.7981,-4.50156 h -1.9486 v 6.60351 h 1.2735 v -5.02323 h 0.07 l 1.8839,5.02323 h 0.9698 l 1.8748,-5.02323 z m -10.8719,0 h 1.4269 v -5.4835 h 1.8719 v -1.12001 h -5.2441 v 1.12001 h 1.9453 z m -118.0503,27.48811 c 0,8.67478 -2.9273,15.19854 -8.7821,19.562 l -4.2315,-3.59019 c 1.8626,-2.1848 3.1146,-4.79309 3.7528,-7.82787 0.4266,-2.07742 0.6383,-4.94958 0.6383,-8.62263 V 98.637786 h 8.6225 z m 38.7253,5.59089 h -6.3889 l -0.6382,-4.31437 c -3.94,3.40916 -8.0366,5.1122 -12.2957,5.1122 -7.9843,0 -11.9764,-3.67307 -11.9764,-11.01917 0,-4.20392 1.6232,-7.47807 4.8697,-9.82244 3.5136,-2.50088 8.6502,-3.75284 15.4133,-3.75284 h 2.8722 v -3.59327 c 0,-4.73478 -2.7433,-7.1037 -8.2236,-7.1037 -3.5688,0 -7.4537,0.7702 -11.6576,2.31368 l -1.1966,-5.02935 c 4.9494,-2.18174 9.982,-3.27415 15.091,-3.27415 9.4205,0 14.1308,4.01981 14.1308,12.05634 z m -8.144,-9.18111 v -9.42352 h -3.4337 c -7.7175,0 -11.5776,2.39654 -11.5776,7.18655 0,4.15175 2.0496,6.2261 6.1493,6.2261 2.8201,0 5.775,-1.32869 8.862,-3.98913 m 48.0658,-30.58118 c -2.6052,14.68915 -6.7048,27.94223 -12.2957,39.76229 h -10.1416 l -12.2158,-39.76229 h 8.865 l 7.5823,24.42874 1.6756,7.34918 c 3.943,-10.8596 6.5758,-21.45226 7.9045,-31.77792 z m 33.6958,39.76229 h -6.3887 l -0.6384,-4.31437 c -3.943,3.40916 -8.0425,5.1122 -12.2955,5.1122 -7.9875,0 -11.9797,-3.67307 -11.9797,-11.01917 0,-4.20392 1.6232,-7.47807 4.8697,-9.82244 3.5136,-2.50088 8.6503,-3.75284 15.4134,-3.75284 h 2.8722 v -3.59327 c 0,-4.73478 -2.7402,-7.1037 -8.2237,-7.1037 -3.5657,0 -7.4506,0.7702 -11.6575,2.31368 l -1.1967,-5.02935 c 4.9496,-2.18174 9.979,-3.27415 15.0911,-3.27415 9.4205,0 14.1338,4.01981 14.1338,12.05634 z m -8.147,-9.18111 v -9.42352 h -3.4307 c -7.7204,0 -11.5807,2.39654 -11.5807,7.18655 0,4.15175 2.0529,6.2261 6.1493,6.2261 2.8231,0 5.7751,-1.32869 8.8621,-3.98913"
   style="fill:#007396;fill-opacity:1;fill-rule:nonzero;stroke:none;stroke-width:3.06855273"
   id="path4118"
   inkscape:connector-curvature="0" /><path
   d="m 1118.537,14.379336 c 0,-4.9649298 18.8347,-7.7511798 27.6046,-8.4262498 l 0.8378,0.48483 c -3.3694,0.61063 -16.8863,2.99491 -16.8863,6.1064098 0,3.38462 20.7342,5.60318 32.7661,5.60318 20.4396,0 34.334,-3.0931 38.0714,-4.11185 l 5.2257,3.04093 c -3.5779,1.75214 -18.9483,6.34577 -43.2971,6.34577 -27.0556,0 -44.3222,-5.29018 -44.3222,-9.04302 m 41.2412,69.69909 c -10.7122,0.0921 -23.7873,-0.79476 -34.785,-2.64202 l -1.0187,0.5861 c 10.9577,3.21277 26.2114,5.15208 42.9719,5.00481 32.9225,-0.28539 59.6098,-8.44773 60.1375,-18.27324 l -0.3804,-0.22093 c -2.2064,2.69112 -16.4445,15.1034 -66.9253,15.54528 m 2.8016,-6.32734 c 26.942,-0.23629 57.0875,-5.50805 57.0076,-14.37311 -0.018,-1.60486 -1.0587,-2.70647 -1.9669,-3.37234 l -0.4418,0.25468 c -2.4918,6.86742 -23.5421,11.93668 -54.6449,12.20978 -20.0683,0.17486 -47.8662,-4.63352 -47.9153,-10.18759 -0.048,-5.57249 13.1702,-8.63184 13.1702,-8.63184 l -0.9359,-0.53394 c -8.856,1.21822 -25.1776,5.46202 -25.1224,11.58686 0.077,8.85277 37.5838,13.25001 60.8494,13.0475 m 60.6961,-61.00284 c -0.5432,10.39626 -10.1447,16.86784 -19.7461,22.336 l 0.8714,0.50324 c 10.2429,-2.88137 28.5191,-11.27386 27.0063,-24.17099 -0.7518,-6.4316898 -6.6311,-11.0252998 -14.2963,-11.0252998 -2.3843,0 -4.5078,0.42039 -6.2292,0.94511 v 0.0161 l -0.3621,0.91442 c 6.852,-1.34094 13.1181,3.66693 12.7621,10.4821898 m -79.1441,30.88804 c -3.127,0.62291 -9.9423,2.18789 -9.9423,5.50192 0,4.58748 14.5789,8.10405 28.6542,8.10405 19.3688,0 27.301,-4.98332 27.6601,-5.24109 l -8.0519,-4.66114 c -3.4246,0.81931 -9.1965,2.0989 -19.5867,2.0989 -11.5991,0 -19.1539,-1.98536 -19.1539,-4.15789 0,-0.46337 0.2854,-1.00956 0.8256,-1.41154 z m 47.5779,-15.47164 c -4.4526,1.26117 -14.4837,3.3171 -28.8321,3.3171 -14.0816,0 -25.5856,-2.40882 -25.6195,-5.25029 -0.025,-1.88716 2.2586,-2.70953 2.2586,-2.70953 l -0.4051,-0.23628 c -6.7447,1.19367 -13.0076,3.0348 -12.9709,5.79344 0.061,5.00481 19.2001,8.76072 36.7091,8.76072 14.8856,0 29.182,-2.49473 35.6291,-5.76888 z"
   style="fill:#007396;fill-opacity:1;fill-rule:nonzero;stroke:none;stroke-width:3.06855273"
   id="path4120"
   inkscape:connector-curvature="0" /><path
   d="m 1187.8706,-79.461314 c 0,27.59243 -37.8108,38.14825 -37.8108,57.76551 0,13.7685902 9.132,22.40658017 14.1859,27.8655302 l -0.4112,0.23627 c -6.3763,-3.98911 -23.1613,-14.01715 -23.1613,-30.5811902 0,-23.25042 43.4292,-34.36165 43.4292,-60.77575 0,-3.24961 -0.4818,-5.74127 -0.8163,-7.08529 l 0.439,-0.25162 c 1.3745,1.7276 4.1455,6.05118 4.1455,12.82654 m 12.4338,24.4349 -0.4511,-0.26083 c -8.2299,2.75862 -33.5608,12.75596 -33.5608,31.39742 0,10.54355 10.295,16.3830002 10.295,26.2698702 0,3.52885 -1.9914,6.83368 -3.6116,8.8098298 l 0.813,0.47255 c 4.2869,-2.7862298 11.8754,-8.8190198 11.8754,-16.6070098 0,-6.5943102 -9.129,-14.5142602 -9.129,-22.9926602 0,-13.35434 17.6105,-23.83344 23.7691,-27.08917"
   style="fill:#ed8b00;fill-opacity:1;fill-rule:nonzero;stroke:none;stroke-width:3.06855273"
   id="path4122"
   inkscape:connector-curvature="0" /><path
   d="m 1134.8702,509.42401 c -1.2672,1.81964 -3.0041,2.72795 -5.2257,2.72795 -4.2806,0 -6.4164,-2.89978 -6.4164,-8.70243 0,-3.00104 0.5923,-5.3086 1.7767,-6.92878 1.1875,-1.62018 2.8384,-2.42722 4.9527,-2.42722 2.062,0 3.584,0.95738 4.5721,2.88444 l -1.3502,1.19365 c -0.7609,-1.21205 -1.749,-1.81964 -2.9641,-1.81964 -1.2826,0 -2.277,0.6045 -2.9858,1.80737 -0.7118,1.20594 -1.0647,2.80159 -1.0647,4.79617 0,4.60896 1.3317,6.91036 3.9982,6.91036 1.2674,0 2.4212,-0.60756 3.4615,-1.81965 z m 15.9811,-6.62807 c 0,3.15754 -0.6874,5.53567 -2.0528,7.14665 -1.2459,1.47599 -2.9889,2.20937 -5.2259,2.20937 -2.2338,0 -3.9062,-0.64748 -5.0109,-1.94853 -1.2151,-1.43608 -1.8226,-3.6976 -1.8226,-6.7815 0,-3.13606 0.6842,-5.50805 2.0527,-7.11905 1.2489,-1.47291 2.9918,-2.20935 5.2228,-2.20935 4.5567,0 6.8367,2.89979 6.8367,8.70241 m -2.9612,0.4971 c 0,-2.49472 -0.356,-4.31438 -1.0678,-5.45895 -0.6567,-1.05557 -1.6908,-1.58337 -3.0901,-1.58337 -2.6849,0 -4.0321,2.20937 -4.0321,6.62808 0,2.52848 0.356,4.36348 1.0678,5.50497 0.6599,1.06171 1.6878,1.58644 3.0932,1.58644 2.6849,0 4.029,-2.22776 4.029,-6.67717 m 24.2446,8.60117 h -2.9365 c -0.104,-4.95573 -0.3897,-9.61685 -0.8562,-13.98033 h -0.025 l -4.4709,13.98033 h -2.2369 l -4.4433,-13.98033 h -0.025 c -0.3285,4.19163 -0.5402,8.85278 -0.623,13.98033 h -2.6789 c 0.172,-6.23838 0.6076,-12.08703 1.2981,-17.53986 h 3.6424 l 4.2346,12.88793 h 0.027 l 4.259,-12.88793 h 3.4829 c 0.761,6.3918 1.2122,12.24047 1.3502,17.53986 m 14.9193,-12.21592 c 0,1.81967 -0.5461,3.2404 -1.6356,4.26222 -1.2489,1.17833 -3.1422,1.7675 -5.6677,1.7675 h -0.8099 v 6.1862 h -2.8016 v -17.53986 c 0.4297,0 1.1323,-0.0128 2.105,-0.0306 h 2.3873 c 4.2837,0 6.4225,1.78896 6.4225,5.35463 m -2.9366,0.28844 c 0,-2.37506 -1.3195,-3.56259 -3.9523,-3.56259 h -1.2243 v 7.2019 h 1.2766 c 2.6019,0 3.9,-1.21516 3.9,-3.63931 m 17.6165,11.92747 h -3.0134 c -0.1902,-0.83465 -0.4847,-2.05288 -0.8805,-3.66387 h -6.2659 c -0.2915,1.15992 -0.5617,2.38121 -0.8041,3.66387 h -2.731 c 1.387,-5.87323 3.0502,-11.72187 4.9925,-17.53985 h 3.6117 c 1.9609,5.73207 3.6577,11.58071 5.0907,17.53985 m -4.3603,-5.7689 c -0.9728,-3.49813 -1.8934,-6.56669 -2.7587,-9.20259 -1.0034,3.32939 -1.8594,6.39489 -2.5714,9.20259 z m 16.4228,-9.5616 h -4.2621 v 15.3305 h -2.8078 v -15.33052 h -4.2623 v -2.20936 h 11.3322 z m 5.3486,15.3305 h -2.8049 v -17.53988 h 2.8049 z m 15.622,-5.45591 c 0,1.64476 -0.5525,2.95196 -1.6632,3.92469 -1.2306,1.05559 -3.0072,1.58338 -5.3301,1.58338 -0.5002,0 -1.2335,-0.009 -2.1909,-0.0276 -0.9636,-0.0161 -1.6694,-0.0245 -2.1205,-0.0245 v -17.53984 h 5.2994 c 1.697,0 2.9918,0.38049 3.8726,1.14149 0.8161,0.70883 1.2242,1.67849 1.2242,2.91206 0,1.87182 -0.8345,3.16983 -2.4977,3.89707 0.9696,0.15641 1.7674,0.58914 2.3904,1.30106 0.6781,0.77939 1.0158,1.72145 1.0158,2.83227 m -3.7682,-7.61922 c 0,-1.64475 -0.9361,-2.46712 -2.8108,-2.46712 h -1.9731 v 5.35463 h 1.5864 c 1.0925,0 1.9208,-0.30379 2.4917,-0.90829 0.4694,-0.50323 0.7058,-1.15992 0.7058,-1.97922 m 0.8038,7.85242 c 0,-2.00989 -1.2396,-3.0133 -3.7159,-3.0133 h -1.8718 v 6.13097 c 0.589,0.0707 1.2827,0.10739 2.0804,0.10739 2.3413,0 3.5073,-1.07708 3.5073,-3.22507 m 14.7843,5.22269 h -8.3403 V 494.3545 h 2.8077 v 15.38264 h 5.5326 z m 11.4089,0 h -8.8067 V 494.3545 h 8.7056 v 2.17866 h -5.9009 v 5.33008 h 4.8605 v 2.10503 h -4.8605 v 5.7167 h 6.002 z m -124.9731,25.98749 h -8.8099 v -17.5429 h 8.7054 v 2.1848 h -5.8977 v 5.327 h 4.8608 v 2.10504 h -4.8608 v 5.71672 h 6.0022 z m 16.0361,0 h -2.8599 l -7.3827,-13.56606 v 13.56606 h -2.3598 v -17.5429 h 3.5073 l 6.7292,12.03485 v -12.03485 h 2.3659 z m 13.8762,-15.33355 h -4.2593 v 15.33355 h -2.8108 v -15.33358 h -4.259 v -2.20935 h 11.3291 z m 11.3565,15.33355 h -8.8098 v -17.5429 h 8.7024 v 2.1848 h -5.8976 v 5.327 h 4.8604 v 2.10504 h -4.8604 v 5.71672 h 6.005 z m 15.1526,0 h -3.271 l -4.4741,-7.66831 h -1.1721 v 7.66831 h -2.8047 v -17.5429 c 1.9731,-0.0337 3.5963,-0.0522 4.8637,-0.0522 1.9548,0 3.4552,0.41733 4.4955,1.24891 0.9512,0.79783 1.4269,1.89638 1.4269,3.30176 0,2.63283 -1.3563,4.23461 -4.0783,4.80842 z m -3.8725,-12.73447 c 0,-1.88717 -1.1691,-2.83228 -3.5073,-2.83228 h -1.5374 v 5.84865 h 1.7185 c 2.2153,0 3.3262,-1.00649 3.3262,-3.01637 m 17.1807,0.52166 c 0,1.81657 -0.546,3.2373 -1.6385,4.25913 -1.2488,1.17833 -3.136,1.76748 -5.6676,1.76748 h -0.8038 v 6.1862 h -2.8079 v -17.5429 c 0.4327,0 1.1354,-0.009 2.1052,-0.0276 h 2.3934 c 4.2775,0 6.4192,1.78897 6.4192,5.35769 m -2.9394,0.28539 c 0,-2.37507 -1.3166,-3.56262 -3.9463,-3.56262 h -1.2242 v 7.19883 h 1.2763 c 2.5961,0 3.8942,-1.21207 3.8942,-3.63621 m 17.4629,11.92744 h -3.2741 l -4.4678,-7.66831 h -1.1692 v 7.66831 h -2.8077 v -17.54293 c 1.9732,-0.0336 3.5964,-0.0521 4.8605,-0.0521 1.9578,0 3.4552,0.41733 4.4956,1.24892 0.9483,0.79781 1.43,1.89636 1.43,3.30175 0,2.63282 -1.3626,4.23461 -4.0812,4.80842 z m -3.8755,-12.73448 c 0,-1.88717 -1.1629,-2.83227 -3.5043,-2.83227 h -1.5313 v 5.84865 h 1.7153 c 2.2156,0 3.3203,-1.00649 3.3203,-3.01638 m 9.0736,12.73448 h -2.8077 v -17.5399 h 2.8077 z m 14.2198,-4.86057 c 0,1.48824 -0.5493,2.71258 -1.6416,3.6669 -1.0894,0.95127 -2.5562,1.42689 -4.3913,1.42689 -1.7183,0 -3.3815,-0.5462 -4.9893,-1.63861 l 0.7548,-1.50667 c 1.3839,0.69351 2.6389,1.04025 3.7682,1.04025 1.0555,0 1.8841,-0.23322 2.4824,-0.69964 0.5922,-0.47254 0.8929,-1.11695 0.8929,-1.94852 0,-1.04025 -0.6658,-1.93319 -2.0006,-2.67886 -1.2274,-0.67507 -2.458,-1.35015 -3.6884,-2.02524 -1.3379,-0.96966 -2.0008,-2.23696 -2.0008,-3.79578 0,-1.42075 0.4972,-2.56839 1.4976,-3.44292 0.9911,-0.87455 2.2767,-1.31336 3.8571,-1.31336 1.6232,0 3.1116,0.43269 4.437,1.29801 l -0.6688,1.50667 c -1.1447,-0.48177 -2.2707,-0.72726 -3.3816,-0.72726 -0.9022,0 -1.5925,0.21786 -2.0773,0.65053 -0.4879,0.43574 -0.7302,0.98807 -0.7302,1.66318 0,1.04022 0.6842,1.9393 2.0558,2.70338 1.2457,0.67815 2.5008,1.35937 3.7649,2.05286 1.3687,0.97272 2.0592,2.22777 2.0592,3.76819 m 11.7924,4.86057 h -8.8099 v -17.54293 h 8.7055 v 2.18481 h -5.8978 v 5.32701 h 4.8576 v 2.10502 h -4.8576 v 5.71672 h 6.0022 z m -115.4634,25.98452 h -8.8099 v -17.53985 h 8.7054 v 2.18481 h -5.8977 v 5.32701 h 4.8608 v 2.10501 h -4.8608 v 5.71364 h 6.0022 z m 15.2812,-9.22101 c 0,6.20154 -2.7185,9.30385 -8.1592,9.30385 -0.4143,0 -1.0433,-0.0161 -1.884,-0.04 -0.8407,-0.0276 -1.4423,-0.043 -1.8043,-0.043 v -17.53979 c 0.5185,0 1.2642,-0.009 2.2307,-0.0247 h 2.2096 c 2.5837,0 4.5045,0.81317 5.7718,2.44256 1.0894,1.43608 1.6354,3.40302 1.6354,5.90083 m -2.9364,0.33755 c 0,-4.38191 -1.5834,-6.5759 -4.7563,-6.5759 -0.586,0 -1.0371,0.009 -1.3502,0.0245 v 13.28068 c 0.6567,0.0369 1.1539,0.0521 1.4821,0.0521 3.0809,0 4.6244,-2.26153 4.6244,-6.7815 m 9.0705,8.88347 h -2.8077 v -17.53986 h 2.8077 z m 13.8791,-15.33049 h -4.2652 v 15.33049 h -2.8046 v -15.3304 h -4.2625 v -2.20936 h 11.3323 z m 5.3486,15.33049 h -2.8016 v -17.53986 h 2.8016 z m 17.4416,-9.09214 c 0,3.15139 -0.6843,5.53261 -2.0529,7.14359 -1.2459,1.47598 -2.9887,2.20937 -5.2227,2.20937 -2.2399,0 -3.9094,-0.65055 -5.0169,-1.94853 -1.2153,-1.43916 -1.8198,-3.69762 -1.8198,-6.7815 0,-3.13608 0.6844,-5.50807 2.0528,-7.11906 1.2489,-1.47597 2.9888,-2.20934 5.2226,-2.20934 4.557,0 6.8369,2.89977 6.8369,8.70547 m -2.9612,0.49098 c 0,-2.49168 -0.3591,-4.31134 -1.0647,-5.45588 -0.6599,-1.05866 -1.6938,-1.58645 -3.0932,-1.58645 -2.6879,0 -4.032,2.20936 -4.032,6.62807 0,2.53157 0.3527,4.36655 1.0647,5.51113 0.6627,1.05556 1.6909,1.58337 3.0961,1.58337 2.685,0 4.0291,-2.22777 4.0291,-6.68024 m 18.8899,8.60116 h -2.8568 l -7.3797,-13.56302 v 13.56302 h -2.3659 v -17.53986 h 3.5104 l 6.7293,12.03488 v -12.03488 h 2.3627 z"
   style="fill:#007396;fill-opacity:1;fill-rule:nonzero;stroke:none;stroke-width:3.06855273"
   id="path4124"
   inkscape:connector-curvature="0" /><path
   d="m 1243.6863,449.39452 h 1.3502 v -6.6035 h -2.0283 l -1.6478,4.50155 -1.7983,-4.50155 h -1.9484 v 6.6035 h 1.2703 v -5.02629 h 0.073 l 1.881,5.02629 h 0.9727 l 1.875,-5.02629 z m -10.8749,0 h 1.4299 v -5.4835 h 1.8719 v -1.12 h -5.2441 v 1.12 h 1.9423 z m -118.0657,27.49118 c 0,8.67786 -2.9304,15.2016 -8.7821,19.56508 l -4.2346,-3.5902 c 1.8626,-2.18482 3.1146,-4.79307 3.7528,-7.82788 0.4266,-2.0774 0.6382,-4.94957 0.6382,-8.62264 V 428.5744 h 8.6257 z m 38.7313,5.59091 h -6.3887 l -0.6383,-4.31131 c -3.9431,3.40914 -8.0395,5.1122 -12.2988,5.1122 -7.9843,0 -11.9764,-3.67613 -11.9764,-11.02224 0,-4.20394 1.6232,-7.47806 4.8666,-9.82245 3.5167,-2.50394 8.6533,-3.75284 15.4164,-3.75284 h 2.8722 v -3.59326 c 0,-4.73785 -2.7401,-7.10677 -8.2236,-7.10677 -3.5688,0 -7.4537,0.7702 -11.6606,2.31367 l -1.1967,-5.02936 c 4.9495,-2.18479 9.982,-3.2772 15.0941,-3.2772 9.4205,0 14.1338,4.02288 14.1338,12.05941 z m -8.147,-9.18112 v -9.42353 h -3.4337 c -7.7173,0 -11.5776,2.39346 -11.5776,7.18656 0,4.15176 2.0498,6.22914 6.1493,6.22914 2.82,0 5.775,-1.33174 8.862,-3.99217 m 48.075,-30.58425 c -2.6083,14.69221 -6.7078,27.94529 -12.2958,39.76537 h -10.1444 l -12.2191,-39.76537 h 8.8651 l 7.5855,24.43181 1.6753,7.34918 c 3.9431,-10.85962 6.5759,-21.45534 7.9077,-31.78099 z m 33.6989,39.76537 h -6.3888 l -0.6382,-4.31131 c -3.9431,3.40914 -8.0427,5.1122 -12.2988,5.1122 -7.9873,0 -11.9797,-3.67613 -11.9797,-11.02224 0,-4.20394 1.6235,-7.47806 4.8699,-9.82245 3.5134,-2.50394 8.6503,-3.75284 15.4164,-3.75284 h 2.8692 v -3.59326 c 0,-4.73785 -2.7373,-7.10677 -8.2208,-7.10677 -3.5686,0 -7.4535,0.7702 -11.6604,2.31367 l -1.1968,-5.02936 c 4.9496,-2.18479 9.9819,-3.2772 15.0942,-3.2772 9.4205,0 14.1338,4.02288 14.1338,12.05941 z m -8.15,-9.18112 v -9.42353 h -3.4307 c -7.7205,0 -11.5808,2.39346 -11.5808,7.18656 0,4.15176 2.0529,6.22914 6.1525,6.22914 2.8201,0 5.775,-1.33174 8.859,-3.99217"
   style="fill:#007396;fill-opacity:1;fill-rule:nonzero;stroke:none;stroke-width:3.06855273"
   id="path4126"
   inkscape:connector-curvature="0" /><path
   d="m 1118.5393,344.30397 c 0,-4.96798 18.838,-7.75117 27.6079,-8.42931 l 0.8408,0.48483 c -3.3724,0.61371 -16.8893,2.99798 -16.8893,6.10948 0,3.38461 20.7342,5.60319 32.7691,5.60319 20.4427,0 34.3401,-3.09312 38.0775,-4.11187 l 5.2259,3.04094 c -3.5779,1.75521 -18.9515,6.34883 -43.3034,6.34883 -27.0586,0 -44.3285,-5.29325 -44.3285,-9.04609 m 41.2475,69.70831 c -10.7122,0.095 -23.7904,-0.79475 -34.7911,-2.64201 l -1.0189,0.58608 c 10.9579,3.21278 26.2147,5.15516 42.9813,5.00786 32.9255,-0.28842 59.6158,-8.45076 60.1467,-18.27937 l -0.3805,-0.22091 c -2.2093,2.69419 -16.4474,15.10647 -66.9375,15.54835 m 2.8016,-6.33043 c 26.948,-0.2332 57.0967,-5.50805 57.0169,-14.37003 -0.018,-1.60791 -1.0587,-2.70952 -1.967,-3.37233 l -0.4418,0.25161 c -2.4917,6.86742 -23.5482,11.93974 -54.6541,12.21284 -20.0713,0.17487 -47.8725,-4.63351 -47.9216,-10.19065 -0.048,-5.5725 13.1702,-8.63184 13.1702,-8.63184 l -0.9357,-0.53701 c -8.856,1.2213 -25.1806,5.46509 -25.1254,11.58993 0.077,8.85585 37.5897,13.25307 60.8585,13.04748 m 60.7052,-61.00896 c -0.543,10.39625 -10.1477,16.8709 -19.7461,22.33907 l 0.8684,0.50324 c 10.2459,-2.88137 28.5222,-11.27387 27.0125,-24.17405 -0.7548,-6.4317 -6.6343,-11.02839 -14.2995,-11.02839 -2.3874,0 -4.5108,0.42038 -6.2322,0.94511 v 0.0161 l -0.3621,0.91748 c 6.8552,-1.34402 13.1211,3.66385 12.7651,10.48219 m -79.1563,30.89111 c -3.1269,0.62291 -9.9422,2.18788 -9.9422,5.50191 0,4.59057 14.5819,8.10713 28.6572,8.10713 19.3719,0 27.3071,-4.98333 27.6661,-5.2411 l -8.0549,-4.66111 c -3.4276,0.81622 -9.1965,2.09888 -19.5897,2.09888 -11.5991,0 -19.157,-1.98537 -19.157,-4.16097 0,-0.46028 0.2885,-1.00955 0.8254,-1.40846 z m 47.5871,-15.47166 c -4.4556,1.25813 -14.4867,3.31713 -28.8382,3.31713 -14.0816,0 -25.5887,-2.4119 -25.6225,-5.25031 -0.025,-1.88714 2.2585,-2.70952 2.2585,-2.70952 l -0.4051,-0.23628 c -6.7446,1.1906 -13.0075,3.03479 -12.9739,5.79342 0.064,5.00481 19.2062,8.76379 36.7152,8.76379 14.8856,0 29.1851,-2.49779 35.6352,-5.77194 z"
   style="fill:#007396;fill-opacity:1;fill-rule:nonzero;stroke:none;stroke-width:3.06855273"
   id="path4128"
   inkscape:connector-curvature="0" /><path
   d="m 1187.8835,250.4492 c 0,27.59551 -37.8169,38.1544 -37.8169,57.77474 0,13.77164 9.1351,22.40962 14.1859,27.86859 l -0.4081,0.23626 c -6.3795,-3.9891 -23.1644,-14.01714 -23.1644,-30.58424 0,-23.25658 43.4353,-34.36782 43.4353,-60.78498 0,-3.2496 -0.4818,-5.74125 -0.8163,-7.08529 l 0.4357,-0.25469 c 1.3778,1.73068 4.1488,6.05427 4.1488,12.82961 m 12.4369,24.43798 -0.4542,-0.26084 c -8.2299,2.75862 -33.5639,12.75906 -33.5639,31.40358 0,10.54355 10.2981,16.38606 10.2981,26.27295 0,3.52882 -1.9945,6.83365 -3.6147,8.81287 l 0.8161,0.4695 c 4.2869,-2.78624 11.8754,-8.81903 11.8754,-16.60701 0,-6.59432 -9.129,-14.52039 -9.129,-22.99574 0,-13.36048 17.6136,-23.83958 23.7722,-27.09531"
   style="fill:#ed8b00;fill-opacity:1;fill-rule:nonzero;stroke:none;stroke-width:3.06855273"
   id="path4130"
   inkscape:connector-curvature="0" /><path
   d="m 888.13565,453.74021 c -1.295,1.86262 -3.0746,2.79239 -5.3484,2.79239 -4.3759,0 -6.5637,-2.9673 -6.5637,-8.90801 0,-3.06549 0.6045,-5.42827 1.8196,-7.08529 1.2153,-1.65701 2.9028,-2.48554 5.0662,-2.48554 2.1081,0 3.667,0.98196 4.6764,2.95196 l -1.3778,1.22435 c -0.7824,-1.24277 -1.792,-1.86568 -3.0347,-1.86568 -1.3134,0 -2.3291,0.61986 -3.0563,1.85034 -0.7273,1.23357 -1.0894,2.86603 -1.0894,4.90662 0,4.71636 1.3626,7.07301 4.0936,7.07301 1.2948,0 2.4762,-0.6229 3.538,-1.86261 z m 16.3492,-6.78149 c 0,3.22812 -0.7027,5.66454 -2.0988,7.31235 -1.2735,1.50974 -3.0563,2.26153 -5.3455,2.26153 -2.286,0 -3.9983,-0.66588 -5.1275,-1.99455 -1.2458,-1.46986 -1.8626,-3.78354 -1.8626,-6.93801 0,-3.20971 0.6996,-5.63692 2.0989,-7.28475 1.2765,-1.50972 3.0594,-2.26153 5.3423,-2.26153 4.6642,0 6.9932,2.9673 6.9932,8.90496 m -3.0286,0.50632 c 0,-2.54997 -0.3652,-4.41258 -1.0924,-5.58172 -0.672,-1.08318 -1.7277,-1.62326 -3.1637,-1.62326 -2.7434,0 -4.1211,2.26153 -4.1211,6.7815 0,2.5868 0.3621,4.46781 1.0895,5.63388 0.6781,1.08626 1.7275,1.62326 3.1667,1.62326 2.7462,0 4.121,-2.27995 4.121,-6.83366 m 24.8062,8.80059 h -3.0042 c -0.1076,-5.06923 -0.3988,-9.83471 -0.8775,-14.30251 h -0.025 l -4.5753,14.30251 h -2.2892 l -4.5445,-14.30251 h -0.025 c -0.3374,4.28983 -0.5523,9.05835 -0.6383,14.30251 h -2.7402 c 0.1757,-6.38258 0.6199,-12.36319 1.3287,-17.94488 h 3.7253 l 4.3326,13.18862 h 0.027 l 4.3573,-13.18862 h 3.5625 c 0.7796,6.53908 1.2429,12.52275 1.3841,17.94488 m 15.2598,-12.49514 c 0,1.86261 -0.5585,3.31404 -1.6754,4.36041 -1.2735,1.20593 -3.2097,1.80737 -5.7934,1.80737 h -0.8285 v 6.32736 h -2.8661 v -17.94488 c 0.4388,0 1.1599,-0.009 2.1511,-0.0276 h 2.4425 c 4.3818,0 6.5698,1.8258 6.5698,5.47738 m -3.0041,0.29152 c 0,-2.42725 -1.3501,-3.6424 -4.0414,-3.6424 h -1.2518 v 7.36761 h 1.3041 c 2.6605,0 3.9891,-1.24277 3.9891,-3.72521 m 18.0247,12.20361 h -3.0839 c -0.1933,-0.84998 -0.494,-2.09888 -0.8991,-3.74669 h -6.4134 c -0.2975,1.18752 -0.5736,2.43643 -0.8223,3.74669 h -2.7923 c 1.4208,-6.00821 3.1207,-11.9919 5.106,-17.94489 h 3.6946 c 2.0068,5.86709 3.7436,11.85077 5.2104,17.94489 m -4.4617,-5.89774 c -0.9972,-3.58408 -1.9362,-6.72014 -2.8231,-9.4174 -1.0248,3.4061 -1.9025,6.54216 -2.6298,9.4174 z m 16.8033,-9.78562 h -4.3601 v 15.68336 h -2.8752 V 440.5823 h -4.3573 v -2.26153 h 11.5928 z m 5.4744,15.68336 h -2.8691 v -17.94491 h 2.8691 z m 15.981,-5.58169 c 0,1.68464 -0.5676,3.02252 -1.703,4.01674 -1.2613,1.08013 -3.0748,1.62019 -5.4529,1.62019 -0.5093,0 -1.2611,-0.009 -2.2431,-0.0276 -0.985,-0.0161 -1.7092,-0.0276 -2.1695,-0.0276 v -17.94488 h 5.4222 c 1.7369,0 3.0623,0.38971 3.9646,1.16912 0.8346,0.72726 1.252,1.7184 1.252,2.97649 0,1.91786 -0.8532,3.24654 -2.5561,3.98912 0.9911,0.15963 1.8104,0.60451 2.4456,1.33176 0.6935,0.79782 1.0402,1.76135 1.0402,2.89671 m -3.8572,-7.79414 c 0,-1.68154 -0.9573,-2.52541 -2.8751,-2.52541 h -2.0192 v 5.48043 h 1.6232 c 1.117,0 1.9671,-0.30991 2.5501,-0.92975 0.4818,-0.51553 0.721,-1.18754 0.721,-2.02527 m 0.8225,8.03349 c 0,-2.05593 -1.2674,-3.0839 -3.8021,-3.0839 h -1.9147 v 6.27518 c 0.6045,0.0707 1.3133,0.10739 2.1296,0.10739 2.3934,0 3.5872,-1.10161 3.5872,-3.2987 m 15.12805,5.34234 h -8.53385 v -17.94491 h 2.8722 v 15.7386 h 5.66165 z m 11.6727,0 h -9.0123 v -17.94491 h 8.9079 v 2.23083 h -6.0359 v 5.45282 h 4.9711 v 2.15414 h -4.9711 v 5.84866 h 6.1403 z M 886.24375,482.8547 h -9.0124 v -17.9449 h 8.9049 v 2.23083 h -6.0327 v 5.44977 h 4.9709 v 2.15411 h -4.9709 v 5.84866 h 6.1402 z m 16.4075,0 h -2.9275 l -7.5517,-13.87906 v 13.87906 h -2.4149 v -17.9449 h 3.587 l 6.8859,12.31104 V 464.9098 h 2.4212 z m 14.1981,-15.68644 h -4.3603 v 15.68644 h -2.8753 v -15.68644 h -4.3574 v -2.25846 h 11.593 z m 11.6176,15.68644 h -9.0123 v -17.9449 h 8.9048 v 2.23083 h -6.0357 v 5.44977 h 4.9709 v 2.15411 h -4.9709 v 5.84866 h 6.1432 z m 15.5022,0 h -3.3507 l -4.5721,-7.84323 h -1.1999 v 7.84323 h -2.8691 v -17.9449 c 2.0192,-0.0367 3.6761,-0.0552 4.9741,-0.0552 1.9977,0 3.5319,0.42652 4.5967,1.27653 0.9727,0.81621 1.4607,1.9393 1.4607,3.37846 0,2.69421 -1.3871,4.3328 -4.1733,4.91889 z m -3.9615,-13.026 c 0,-1.93319 -1.1997,-2.89978 -3.5901,-2.89978 h -1.5711 v 5.98368 h 1.7551 c 2.2677,0 3.4061,-1.03105 3.4061,-3.0839 m 17.5738,0.53084 c 0,1.85956 -0.5585,3.31099 -1.6756,4.36043 -1.2765,1.20288 -3.2065,1.80738 -5.7965,1.80738 h -0.8224 v 6.32735 h -2.872 v -17.9449 c 0.4419,0 1.1599,-0.0128 2.1541,-0.0306 h 2.4456 c 4.3758,0 6.5668,1.82884 6.5668,5.48042 m -3.0043,0.29152 c 0,-2.42722 -1.3469,-3.64543 -4.0412,-3.64543 h -1.249 v 7.36758 h 1.3042 c 2.6574,0 3.986,-1.23971 3.986,-3.72215 m 17.8653,12.20364 h -3.3479 l -4.5721,-7.84324 h -1.1968 v 7.84324 h -2.8753 v -17.94491 c 2.0192,-0.0367 3.6824,-0.0552 4.9742,-0.0552 2.0038,0 3.5349,0.42652 4.5999,1.27652 0.9727,0.81621 1.4636,1.93931 1.4636,3.37847 0,2.69419 -1.3932,4.3328 -4.1764,4.91888 z m -3.9646,-13.02602 c 0,-1.93318 -1.1907,-2.89977 -3.5842,-2.89977 h -1.568 v 5.98368 h 1.7553 c 2.2677,0 3.3969,-1.03105 3.3969,-3.08391 m 9.2824,13.02602 h -2.8722 v -17.94491 h 2.8722 z m 14.548,-4.97107 c 0,1.52202 -0.5617,2.77398 -1.6786,3.74978 -1.1139,0.97273 -2.6144,1.46063 -4.4924,1.46063 -1.7581,0 -3.4582,-0.55847 -5.106,-1.67543 l 0.7733,-1.54042 c 1.4147,0.70577 2.7003,1.06173 3.854,1.06173 1.0802,0 1.9301,-0.23934 2.5409,-0.71498 0.6076,-0.48177 0.9112,-1.14457 0.9112,-1.99456 0,-1.06478 -0.6811,-1.97922 -2.0435,-2.7402 -1.2581,-0.69043 -2.5162,-1.38086 -3.7775,-2.07129 -1.3654,-0.99421 -2.0436,-2.28914 -2.0436,-3.88479 0,-1.45142 0.5063,-2.62667 1.5312,-3.52269 1.0156,-0.89603 2.3291,-1.34403 3.9462,-1.34403 1.66,0 3.182,0.44494 4.5413,1.32868 l -0.6872,1.5435 c -1.1691,-0.49406 -2.3229,-0.74567 -3.4583,-0.74567 -0.9205,0 -1.6295,0.22401 -2.1265,0.66587 -0.4972,0.44495 -0.7457,1.00955 -0.7457,1.70305 0,1.06172 0.6997,1.9823 2.105,2.76476 1.2735,0.6935 2.5562,1.39007 3.8512,2.09889 1.3991,0.99421 2.105,2.27994 2.105,3.85717 m 12.06555,4.97107 h -9.01245 v -17.94491 h 8.90495 v 2.23083 h -6.03275 v 5.44977 h 4.97115 v 2.15412 h -4.97115 v 5.84866 h 6.14025 z m -118.13005,26.58593 h -9.0124 v -17.94488 h 8.9049 v 2.23389 h -6.0327 v 5.45281 h 4.9709 v 2.15414 h -4.9709 v 5.84559 h 6.1402 z m 15.6342,-9.43579 c 0,6.34577 -2.7801,9.52171 -8.3465,9.52171 -0.4234,0 -1.0679,-0.016 -1.9271,-0.043 -0.8622,-0.0276 -1.476,-0.043 -1.8472,-0.043 v -17.94488 c 0.5308,0 1.295,-0.009 2.2831,-0.0276 h 2.2584 c 2.645,0 4.612,0.83466 5.9038,2.50088 1.1171,1.46983 1.6755,3.4828 1.6755,6.03584 m -3.0042,0.34674 c 0,-4.48314 -1.6202,-6.72933 -4.8636,-6.72933 -0.6045,0 -1.0648,0.009 -1.3839,0.0276 v 13.58448 c 0.6721,0.0399 1.1814,0.0552 1.519,0.0552 3.1513,0 4.7285,-2.31368 4.7285,-6.938 m 9.2793,9.08905 h -2.8722 v -17.94488 h 2.8722 z m 14.2013,-15.68337 h -4.3635 v 15.68337 h -2.869 v -15.68337 h -4.3635 v -2.26151 h 11.596 z m 5.4712,15.68337 h -2.8659 v -17.94488 h 2.8659 z m 17.8437,-9.30385 c 0,3.22506 -0.7026,5.66455 -2.1019,7.3093 -1.2735,1.50973 -3.0564,2.26153 -5.3424,2.26153 -2.2891,0 -3.9984,-0.66589 -5.1307,-1.99457 -1.2427,-1.46984 -1.8626,-3.78046 -1.8626,-6.938 0,-3.20971 0.6996,-5.63386 2.0989,-7.28475 1.2796,-1.50664 3.0625,-2.25846 5.3454,-2.25846 4.6612,0 6.9933,2.96423 6.9933,8.90495 m -3.0318,0.50326 c 0,-2.55 -0.3651,-4.40952 -1.0893,-5.58171 -0.6721,-1.08013 -1.7306,-1.6202 -3.1637,-1.6202 -2.7462,0 -4.121,2.25846 -4.121,6.77843 0,2.58987 0.3591,4.46782 1.0863,5.63694 0.6781,1.0832 1.7306,1.62326 3.1667,1.62326 2.7463,0 4.121,-2.27994 4.121,-6.83672 m 19.3289,8.80059 h -2.9244 l -7.5485,-13.876 v 13.876 h -2.4243 v -17.94488 h 3.5964 l 6.8828,12.31103 v -12.31103 h 2.418 z"
   style="fill:#007396;fill-opacity:1;fill-rule:nonzero;stroke:none;stroke-width:3.06855273"
   id="path4132"
   inkscape:connector-curvature="0" /><path
   d="m 999.50545,392.38879 h 1.37475 v -6.75387 h -2.07435 l -1.6847,4.60589 -1.8381,-4.60589 h -1.9946 v 6.75387 h 1.3011 v -5.13981 h 0.081 l 1.9208,5.13981 h 0.9942 l 1.921,-5.13981 z m -11.1236,0 h 1.4607 v -5.60931 h 1.9117 v -1.14456 h -5.3669 v 1.14456 h 1.9945 z m -120.7629,28.11715 c 0,8.87427 -2.998,15.54837 -8.9847,20.01003 l -4.3297,-3.67305 c 1.9056,-2.2339 3.1851,-4.90048 3.8387,-8.00586 0.4358,-2.12343 0.6536,-5.06003 0.6536,-8.81902 v -48.92806 h 8.8221 z m 39.6182,5.71673 h -6.5361 l -0.6536,-4.40951 c -4.0321,3.48895 -8.2237,5.22882 -12.5779,5.22882 -8.1717,0 -12.2527,-3.75899 -12.2527,-11.27081 0,-4.30211 1.6599,-7.64991 4.9802,-10.04643 3.5932,-2.56225 8.8497,-3.83876 15.7692,-3.83876 h 2.9336 v -3.6792 c 0,-4.84524 -2.8016,-7.2694 -8.4078,-7.2694 -3.6516,0 -7.6224,0.79475 -11.9275,2.36892 l -1.2245,-5.14598 c 5.0632,-2.23389 10.2092,-3.35084 15.438,-3.35084 9.6383,0 14.4591,4.11494 14.4591,12.33558 z m -8.3373,-9.38979 v -9.6383 h -3.5075 c -7.8983,0 -11.8446,2.4487 -11.8446,7.34918 0,4.24687 2.099,6.37031 6.2907,6.37031 2.8874,0 5.9069,-1.35937 9.0614,-4.08119 m 49.1704,-31.28388 c -2.6665,15.02977 -6.8582,28.58664 -12.5779,40.67367 h -10.3686 L 912.62555,385.549 h 9.0645 l 7.7603,24.9903 1.7153,7.51794 c 4.0289,-11.10509 6.7263,-21.9432 8.0856,-32.50824 z m 34.4692,40.67367 h -6.5361 l -0.6506,-4.40951 c -4.0289,3.48895 -8.2236,5.22882 -12.5779,5.22882 -8.1685,0 -12.2497,-3.75899 -12.2497,-11.27081 0,-4.30211 1.6602,-7.64991 4.9803,-10.04643 3.5933,-2.56225 8.8496,-3.83876 15.7631,-3.83876 h 2.9397 v -3.6792 c 0,-4.84524 -2.8046,-7.2694 -8.4139,-7.2694 -3.6485,0 -7.6224,0.79475 -11.9245,2.36892 l -1.2212,-5.14598 c 5.06,-2.23389 10.209,-3.35084 15.4347,-3.35084 9.6353,0 14.4561,4.11494 14.4561,12.33558 z m -8.3312,-9.38979 v -9.6383 h -3.5136 c -7.8922,0 -11.8383,2.4487 -11.8383,7.34918 0,4.24687 2.0926,6.37031 6.2844,6.37031 2.8874,0 5.9069,-1.35937 9.0675,-4.08119"
   style="fill:#007396;fill-opacity:1;fill-rule:nonzero;stroke:none;stroke-width:3.06855273"
   id="path4134"
   inkscape:connector-curvature="0" /><path
   d="m 755.33085,388.2484 c 0,-3.57178 13.5507,-5.57555 19.8597,-6.06345 l 0.6045,0.34981 c -2.4241,0.44187 -12.1515,2.15412 -12.1515,4.39417 0,2.43643 14.9164,4.03206 23.5727,4.03206 14.7075,0 24.7018,-2.22776 27.3898,-2.96113 l 3.7621,2.18786 c -2.5776,1.26119 -13.6335,4.56602 -31.1489,4.56602 -19.4669,0 -31.8884,-3.80807 -31.8884,-6.50534 m 29.6699,50.14323 c -7.7052,0.0674 -17.1133,-0.57075 -25.0272,-1.89944 l -0.7334,0.42039 c 7.8862,2.31061 18.8593,3.70681 30.9187,3.60248 23.6833,-0.20867 42.8831,-6.08187 43.2636,-13.14874 l -0.2732,-0.15964 c -1.5863,1.93625 -11.8322,10.8688 -48.1485,11.18487 m 2.0159,-4.55372 c 19.3842,-0.16879 41.0696,-3.9615 41.0144,-10.33796 -0.018,-1.15686 -0.7641,-1.94852 -1.4177,-2.42722 l -0.3161,0.18411 c -1.7919,4.94036 -16.9384,8.58887 -39.3143,8.78219 -14.4374,0.12883 -34.4353,-3.33245 -34.472,-7.32769 -0.034,-4.00754 9.4757,-6.21076 9.4757,-6.21076 l -0.6721,-0.38357 c -6.3734,0.87761 -18.1137,3.92775 -18.0768,8.33419 0.059,6.37031 27.0401,9.53399 43.7789,9.38671 m 43.6655,-43.88339 c -0.3897,7.47807 -7.297,12.13306 -14.2042,16.06695 l 0.6259,0.36209 c 7.3706,-2.07434 20.5163,-8.11018 19.43,-17.38949 -0.543,-4.62737 -4.7715,-7.9322 -10.2857,-7.9322 -1.7153,0 -3.2434,0.30379 -4.4832,0.68122 v 0.009 l -0.2608,0.65975 c 4.9311,-0.9666 9.4389,2.63588 9.181,7.5425 m -56.9399,22.21939 c -2.2493,0.44801 -7.1498,1.57418 -7.1498,3.95842 0,3.30179 10.4883,5.83026 20.6145,5.83026 13.9344,0 19.6419,-3.58406 19.8997,-3.77126 l -5.7935,-3.35084 c -2.464,0.58607 -6.6158,1.50971 -14.0908,1.50971 -8.3464,0 -13.7808,-1.42993 -13.7808,-2.99183 0,-0.33447 0.2055,-0.72725 0.5952,-1.01569 z m 34.2328,-11.12964 c -3.2067,0.90522 -10.424,2.38425 -20.7435,2.38425 -10.1293,0 -18.4081,-1.73373 -18.4327,-3.77431 -0.018,-1.35936 1.6263,-1.95159 1.6263,-1.95159 l -0.2915,-0.16879 c -4.8514,0.85922 -9.356,2.18175 -9.3314,4.16711 0.043,3.59941 13.8114,6.30588 26.4078,6.30588 10.7094,0 20.9951,-1.79818 25.6317,-4.15176 z"
   style="fill:#007396;fill-opacity:1;fill-rule:nonzero;stroke:none;stroke-width:3.06855273"
   id="path4136"
   inkscape:connector-curvature="0" /><path
   d="m 805.21135,320.73685 c 0,19.8505 -27.2026,27.44515 -27.2026,41.55742 0,9.90837 6.5697,16.11911 10.206,20.04685 l -0.2946,0.17182 c -4.5905,-2.87217 -16.6623,-10.08326 -16.6623,-22.00153 0,-16.72975 31.244,-24.72025 31.244,-43.7238 0,-2.33823 -0.3467,-4.13027 -0.5891,-5.09687 l 0.3161,-0.18106 c 0.9911,1.24279 2.9825,4.35429 2.9825,9.22715 m 8.9449,17.57975 -0.3252,-0.18718 c -5.9193,1.98228 -24.1434,9.17496 -24.1434,22.5876 0,7.58547 7.4074,11.78633 7.4074,18.89922 0,2.5377 -1.433,4.91582 -2.599,6.33963 l 0.5861,0.33755 c 3.0839,-2.00376 8.5429,-6.34271 8.5429,-11.94588 0,-4.74397 -6.5667,-10.44537 -6.5667,-16.54258 0,-9.60763 12.6669,-17.14706 17.0979,-19.48836"
   style="fill:#ed8b00;fill-opacity:1;fill-rule:nonzero;stroke:none;stroke-width:3.06855273"
   id="path4138"
   inkscape:connector-curvature="0" /></svg>