<?xml version="1.0" encoding="UTF-8" standalone="no"?>
<svg
   xmlns:dc="http://purl.org/dc/elements/1.1/"
   xmlns:cc="http://creativecommons.org/ns#"
   xmlns:rdf="http://www.w3.org/1999/02/22-rdf-syntax-ns#"
   xmlns:svg="http://www.w3.org/2000/svg"
   xmlns="http://www.w3.org/2000/svg"
   xmlns:sodipodi="http://sodipodi.sourceforge.net/DTD/sodipodi-0.dtd"
   xmlns:inkscape="http://www.inkscape.org/namespaces/inkscape"
   id="svg18"
   version="1.1"
   viewBox="0 0 961.93439 288.62726"
   height="288.62726"
   width="961.93439"
   sodipodi:docname="netbeans-logo-original.svg"
   inkscape:version="0.92.5 (2060ec1f9f, 2020-04-08)">
  <sodipodi:namedview
     pagecolor="#ffffff"
     bordercolor="#666666"
     borderopacity="1"
     objecttolerance="10"
     gridtolerance="10"
     guidetolerance="10"
     inkscape:pageopacity="0"
     inkscape:pageshadow="2"
     inkscape:window-width="1920"
     inkscape:window-height="1017"
     id="namedview28"
     showgrid="false"
     inkscape:pagecheckerboard="true"
     inkscape:showpageshadow="false"
     inkscape:zoom="0.65021318"
     inkscape:cx="494.82363"
     inkscape:cy="203.30063"
     inkscape:window-x="-8"
     inkscape:window-y="-8"
     inkscape:window-maximized="1"
     inkscape:current-layer="svg18"
     fit-margin-top="0"
     fit-margin-left="0"
     fit-margin-right="0"
     fit-margin-bottom="0" />
  <metadata
     id="metadata24">
    <rdf:RDF>
      <cc:Work
         rdf:about="">
        <dc:format>image/svg+xml</dc:format>
        <dc:type
           rdf:resource="http://purl.org/dc/dcmitype/StillImage" />
        <dc:title>apache-netbeans</dc:title>
      </cc:Work>
    </rdf:RDF>
  </metadata>
  <defs
     id="defs22" />
  <title
     id="title2">apache-netbeans</title>
  <path
     id="path894"
     style="font-style:normal;font-variant:normal;font-weight:bold;font-stretch:normal;font-size:113.80524445px;line-height:125%;font-family:Montserrat;-inkscape-font-specification:'Montserrat Bold';letter-spacing:0px;word-spacing:0px;fill:#1e6abf;fill-opacity:1;fill-rule:evenodd;stroke:none;stroke-width:4.13837242px;stroke-linecap:butt;stroke-linejoin:miter;stroke-opacity:1"
     d="m 340.92354,101.6073 h 17.75362 v 79.54987 h -17.75362 l -37.89715,-49.8467 v 49.8467 H 285.27277 V 101.6073 h 16.61557 l 39.0352,51.21236 z"
     inkscape:connector-curvature="0" />
  <path
     id="path896"
     style="font-style:normal;font-variant:normal;font-weight:bold;font-stretch:normal;font-size:113.80524445px;line-height:125%;font-family:Montserrat;-inkscape-font-specification:'Montserrat Bold';letter-spacing:0px;word-spacing:0px;fill:#1e6abf;fill-opacity:1;fill-rule:evenodd;stroke:none;stroke-width:4.13837242px;stroke-linecap:butt;stroke-linejoin:miter;stroke-opacity:1"
     d="m 429.51026,172.28036 q -10.35628,9.78725 -24.35433,9.78725 -13.88424,0 -22.98866,-8.53539 -9.10442,-8.6492 -9.10442,-23.10247 0,-14.45326 9.21823,-22.98866 9.33203,-8.53539 21.96441,-8.53539 12.63238,0 21.39539,7.62495 8.87681,7.62495 8.87681,20.94016 v 9.10442 h -44.61166 q 0.79664,5.00744 5.23504,8.19398 4.43841,3.18655 10.01486,3.18655 8.99062,0 14.79469,-6.03168 z m -12.29097,-27.88229 q -0.56903,-5.46265 -4.09699,-8.42158 -3.52796,-2.95894 -8.6492,-2.95894 -5.00743,0 -9.21822,3.07274 -4.2108,3.07274 -4.89363,8.30778 z"
     inkscape:connector-curvature="0" />
  <path
     id="path898"
     style="font-style:normal;font-variant:normal;font-weight:bold;font-stretch:normal;font-size:113.80524445px;line-height:125%;font-family:Montserrat;-inkscape-font-specification:'Montserrat Bold';letter-spacing:0px;word-spacing:0px;fill:#1e6abf;fill-opacity:1;fill-rule:evenodd;stroke:none;stroke-width:4.13837242px;stroke-linecap:butt;stroke-linejoin:miter;stroke-opacity:1"
     d="m 466.42051,132.22091 v 27.42707 q 0,3.52796 1.82088,5.57645 1.82089,1.93469 4.3246,1.93469 4.77982,0 8.08017,-4.3246 l 6.3731,11.94955 q -7.96637,7.28354 -16.84318,7.28354 -8.763,0 -14.90849,-5.80407 -6.03167,-5.80407 -6.03167,-15.81893 v -28.2237 h -7.16973 v -12.29096 h 7.16973 V 101.6073 h 17.18459 v 18.32265 h 14.79468 v 12.29096 z"
     inkscape:connector-curvature="0" />
  <path
     id="path900"
     style="font-style:normal;font-variant:normal;font-weight:300;font-stretch:normal;font-size:113.80524445px;line-height:125%;font-family:Montserrat;-inkscape-font-specification:'Montserrat Light';letter-spacing:0px;word-spacing:0px;fill:#1e6abf;fill-opacity:1;fill-rule:evenodd;stroke:none;stroke-width:4.13837242px;stroke-linecap:butt;stroke-linejoin:miter;stroke-opacity:1"
     d="m 533.61715,101.4935 q 12.06336,0 18.89167,5.34884 6.94212,5.23504 6.94212,14.56707 0,6.94212 -3.98318,11.72194 -3.86938,4.77982 -10.8115,6.25929 8.6492,1.25186 13.42902,6.60071 4.77982,5.34884 4.77982,13.54282 0,10.12867 -7.62495,15.93274 -7.62495,5.69026 -21.16777,5.69026 H 500.04461 V 101.4935 Z m -0.45522,34.48299 q 8.08018,0 12.51858,-3.41416 4.4384,-3.52796 4.4384,-9.78725 0,-6.14549 -4.4384,-9.44584 -4.4384,-3.41416 -12.51858,-3.41416 h -24.0129 v 26.06141 z m 0,36.75909 q 9.78725,0.1138 15.1361,-3.64177 5.34885,-3.75557 5.34885,-10.69769 0,-6.71451 -5.46265,-10.35628 -5.34885,-3.75557 -15.0223,-3.64177 h -24.0129 v 28.33751 z"
     inkscape:connector-curvature="0" />
  <path
     id="path902"
     style="font-style:normal;font-variant:normal;font-weight:300;font-stretch:normal;font-size:113.80524445px;line-height:125%;font-family:Montserrat;-inkscape-font-specification:'Montserrat Light';letter-spacing:0px;word-spacing:0px;fill:#1e6abf;fill-opacity:1;fill-rule:evenodd;stroke:none;stroke-width:4.13837242px;stroke-linecap:butt;stroke-linejoin:miter;stroke-opacity:1"
     d="m 604.0395,120.95419 q 14.22565,0 21.39538,9.10442 7.28354,8.99062 6.60071,24.46813 h -48.93626 q 1.13805,8.87681 7.05593,14.22566 5.91787,5.34884 14.68087,5.34884 5.46266,0 10.24248,-1.93469 4.77982,-2.04849 8.30778,-5.69026 l 4.89362,5.12124 q -4.3246,4.77982 -10.58388,7.39734 -6.14549,2.50371 -13.54283,2.50371 -8.763,0 -15.59132,-3.75557 -6.71451,-3.86938 -10.47008,-10.69769 -3.75557,-6.94212 -3.75557,-15.81893 0,-8.76301 3.75557,-15.59132 3.75557,-6.94212 10.47008,-10.8115 6.82832,-3.86938 15.47752,-3.86938 z m 20.02972,26.51662 q -0.45522,-8.763 -5.91787,-13.88423 -5.34885,-5.23505 -14.11185,-5.23505 -8.6492,0 -14.33946,5.23505 -5.69027,5.12123 -6.60071,13.88423 z"
     inkscape:connector-curvature="0" />
  <path
     id="path904"
     style="font-style:normal;font-variant:normal;font-weight:300;font-stretch:normal;font-size:113.80524445px;line-height:125%;font-family:Montserrat;-inkscape-font-specification:'Montserrat Light';letter-spacing:0px;word-spacing:0px;fill:#1e6abf;fill-opacity:1;fill-rule:evenodd;stroke:none;stroke-width:4.13837242px;stroke-linecap:butt;stroke-linejoin:miter;stroke-opacity:1"
     d="m 684.48735,181.15717 v -9.33203 q -7.16973,9.67344 -21.96441,9.67344 -6.03168,0 -10.6977,-2.38991 -4.66601,-2.38991 -7.16973,-6.4869 -2.50371,-4.09698 -2.50371,-9.21822 0,-7.85256 5.91787,-12.40477 5.91787,-4.66602 16.50176,-4.77982 h 19.68831 v -3.75558 q 0,-6.71451 -4.09699,-10.35627 -4.09699,-3.75558 -11.94955,-3.75558 -9.21822,0 -19.00548,6.94212 l -3.75557,-6.25928 q 6.37309,-4.2108 11.72194,-6.14549 5.46265,-1.93469 12.74619,-1.93469 11.03911,0 16.95698,5.46265 6.03168,5.46266 6.14548,15.1361 l 0.11381,39.60423 z m -20.25733,-7.05593 q 7.62495,0 12.97379,-3.52796 5.46266,-3.64177 7.16973,-10.01486 v -7.28354 h -18.66406 q -15.2499,0 -15.2499,9.78725 0,5.00743 3.75558,8.08018 3.75557,2.95893 10.01486,2.95893 z"
     inkscape:connector-curvature="0" />
  <path
     id="path906"
     style="font-style:normal;font-variant:normal;font-weight:300;font-stretch:normal;font-size:113.80524445px;line-height:125%;font-family:Montserrat;-inkscape-font-specification:'Montserrat Light';letter-spacing:0px;word-spacing:0px;fill:#1e6abf;fill-opacity:1;fill-rule:evenodd;stroke:none;stroke-width:4.13837242px;stroke-linecap:butt;stroke-linejoin:miter;stroke-opacity:1"
     d="m 744.93749,120.95419 q 10.6977,0 16.72938,6.25929 6.03167,6.14548 6.03167,17.07079 v 36.8729 h -8.87681 v -34.5968 q 0,-7.96636 -4.55221,-12.51857 -4.4384,-4.55221 -12.40477,-4.55221 -8.763,0.1138 -14.11185,5.46265 -5.23504,5.23504 -6.03168,14.11185 v 32.09308 h -8.8768 v -59.86156 h 8.8768 v 13.20141 q 6.14549,-13.31522 23.21627,-13.54283 z"
     inkscape:connector-curvature="0" />
  <path
     id="path908"
     style="font-style:normal;font-variant:normal;font-weight:300;font-stretch:normal;font-size:113.80524445px;line-height:125%;font-family:Montserrat;-inkscape-font-specification:'Montserrat Light';letter-spacing:0px;word-spacing:0px;fill:#1e6abf;fill-opacity:1;fill-rule:evenodd;stroke:none;stroke-width:4.13837242px;stroke-linecap:butt;stroke-linejoin:miter;stroke-opacity:1"
     d="m 819.16697,133.13135 q -3.52797,-2.2761 -7.85257,-3.52796 -4.3246,-1.25186 -8.42158,-1.25186 -5.34885,0 -8.6492,2.0485 -3.18655,1.93469 -3.18655,6.03168 0,2.84513 1.82088,4.66601 1.82089,1.82089 4.55221,2.95894 2.73133,1.02424 7.51115,2.50371 6.25929,1.93469 10.12867,3.75558 3.98318,1.82088 6.71451,5.23504 2.73132,3.41415 2.73132,8.99061 0,8.30778 -6.37309,12.63238 -6.25929,4.3246 -15.59132,4.3246 -6.4869,0 -12.63238,-2.1623 -6.14548,-2.2761 -10.35628,-6.25929 l 3.41416,-6.48689 q 3.75557,3.52796 9.10442,5.57645 5.46265,2.0485 10.8115,2.0485 5.69026,0 9.21822,-2.27611 3.64177,-2.2761 3.64177,-6.71451 0,-4.3246 -3.52796,-6.4869 -3.52797,-2.1623 -10.6977,-4.21079 -6.03167,-1.82088 -9.78725,-3.52796 -3.75557,-1.82089 -6.4869,-5.12124 -2.61752,-3.30035 -2.61752,-8.6492 0,-8.08017 5.91788,-12.17716 5.91787,-4.21079 14.90848,-4.21079 5.23504,0 10.24247,1.47947 5.00744,1.47946 8.87681,3.98318 z"
     inkscape:connector-curvature="0" />
  <path
     id="path910"
     style="font-style:normal;font-variant:normal;font-weight:300;font-stretch:normal;font-size:113.80524445px;line-height:125%;font-family:Montserrat;-inkscape-font-specification:'Montserrat Light';letter-spacing:0px;word-spacing:0px;fill:#1e6abf;fill-opacity:1;fill-rule:evenodd;stroke:none;stroke-width:4.13837242px;stroke-linecap:butt;stroke-linejoin:miter;stroke-opacity:1"
     d="m 839.66616,170.45947 q 2.2761,0 3.86938,1.70708 1.59327,1.59328 1.59327,4.09699 0,2.50372 -1.59327,4.2108 -1.59328,1.59327 -3.86938,1.59327 -2.38991,0 -3.98319,-1.59327 -1.59327,-1.70708 -1.59327,-4.2108 0,-2.50371 1.59327,-4.09699 1.59328,-1.70708 3.98319,-1.70708 z"
     inkscape:connector-curvature="0" />
  <path
     id="path912"
     style="font-style:normal;font-variant:normal;font-weight:normal;font-stretch:normal;font-size:66.21395874px;line-height:125%;font-family:Montserrat;-inkscape-font-specification:Montserrat;letter-spacing:0px;word-spacing:0px;fill:#1e6abf;fill-opacity:1;fill-rule:evenodd;stroke:none;stroke-width:4.13837242px;stroke-linecap:butt;stroke-linejoin:miter;stroke-opacity:1"
     d="m 857.97643,134.8074 h 5.29712 v 46.34977 h -5.29712 z"
     inkscape:connector-curvature="0" />
  <path
     id="path914"
     style="font-style:normal;font-variant:normal;font-weight:normal;font-stretch:normal;font-size:66.21395874px;line-height:125%;font-family:Montserrat;-inkscape-font-specification:Montserrat;letter-spacing:0px;word-spacing:0px;fill:#1e6abf;fill-opacity:1;fill-rule:evenodd;stroke:none;stroke-width:4.13837242px;stroke-linecap:butt;stroke-linejoin:miter;stroke-opacity:1"
     d="m 896.1136,134.8074 q 6.68761,0 12.11716,3.04584 5.42954,3.04584 8.5416,8.34296 3.17827,5.29711 3.17827,11.78608 0,6.48897 -3.17827,11.78609 -3.11206,5.29711 -8.60782,8.34296 -5.49575,3.04584 -12.24958,3.04584 H 877.37505 V 134.8074 Z m 0.0662,41.44993 q 5.09847,0 9.26995,-2.3837 4.23769,-2.3837 6.68761,-6.55518 2.44992,-4.17148 2.44992,-9.26995 0,-5.16469 -2.51613,-9.33617 -2.44992,-4.17148 -6.68761,-6.55518 -4.2377,-2.44992 -9.40238,-2.44992 h -13.30901 v 36.5501 z"
     inkscape:connector-curvature="0" />
  <path
     id="path916"
     style="font-style:normal;font-variant:normal;font-weight:normal;font-stretch:normal;font-size:66.21395874px;line-height:125%;font-family:Montserrat;-inkscape-font-specification:Montserrat;letter-spacing:0px;word-spacing:0px;fill:#1e6abf;fill-opacity:1;fill-rule:evenodd;stroke:none;stroke-width:4.13837242px;stroke-linecap:butt;stroke-linejoin:miter;stroke-opacity:1"
     d="m 929.622,134.8074 h 31.45163 v 4.89983 h -26.15451 v 15.56028 h 23.37353 v 4.83362 h -23.37353 v 16.1562 h 27.01529 v 4.89984 H 929.622 Z"
     inkscape:connector-curvature="0" />
  <g
     transform="matrix(0.21320373,0,0,0.21320373,339.96961,26.637224)"
     id="g917">
    <path
       style="fill:#a1c535;fill-rule:evenodd;stroke-width:0"
       inkscape:connector-curvature="0"
       id="path899"
       d="m -1007.5932,-124.93789 v 261.76271 l -359.5932,208.88136 -227.3899,-132.20339 z" />
    <path
       style="fill:#add439;fill-rule:evenodd;stroke-width:0"
       inkscape:connector-curvature="0"
       id="path901"
       d="M -420.61013,213.50279 -648.00003,345.70618 -1007.5932,136.82482 V -124.93789 Z" />
    <path
       style="fill:#1b6ac6;fill-rule:evenodd;stroke-width:0"
       inkscape:connector-curvature="0"
       id="path903"
       d="m -420.61013,890.38415 -227.3899,-132.2034 V 345.70618 l 227.3899,-132.20339 z" />
    <path
       style="fill:#2e90e8;fill-rule:evenodd;stroke-width:0"
       inkscape:connector-curvature="0"
       id="path905"
       d="M -1007.5932,1228.8248 V 967.06215 l 359.59317,-208.8814 227.3899,132.2034 z" />
    <path
       style="fill:#ea205e;fill-rule:evenodd;stroke-width:0"
       inkscape:connector-curvature="0"
       id="path907"
       d="m -1594.5763,890.38415 227.3899,-132.2034 359.5932,208.8814 v 261.76265 z" />
    <path
       style="fill:#a5073e;fill-rule:evenodd;stroke-width:0"
       inkscape:connector-curvature="0"
       id="path909"
       d="m -1594.5763,213.50279 227.3899,132.20339 v 412.47457 l -227.3899,132.2034 z" />
    <path
       style="fill:#f1f6e2;fill-rule:evenodd;stroke-width:0"
       inkscape:connector-curvature="0"
       id="path911"
       d="m -1367.1864,345.70618 359.5932,-208.88136 359.59317,208.88136 -359.59317,206.23727 z" />
    <path
       style="fill:#cedbe6;fill-rule:evenodd;stroke-width:0"
       inkscape:connector-curvature="0"
       id="path913"
       d="m -1007.5932,551.94345 359.59317,-206.23727 v 412.47457 l -359.59317,208.8814 z" />
    <path
       style="fill:#ffffff;fill-rule:evenodd;stroke-width:0"
       inkscape:connector-curvature="0"
       id="path915"
       d="m -1367.1864,345.70618 359.5932,206.23727 v 415.1187 l -359.5932,-208.8814 z" />
  </g>
</svg>
